<?xml version="1.0" encoding="UTF-8"?>
<!DOCTYPE svg PUBLIC "-//W3C//DTD SVG 1.1//EN" "http://www.w3.org/Graphics/SVG/1.1/DTD/svg11.dtd">
<svg xmlns="http://www.w3.org/2000/svg" version="1.1" width="500px" height="500px" style="shape-rendering:geometricPrecision; text-rendering:geometricPrecision; image-rendering:optimizeQuality; fill-rule:evenodd; clip-rule:evenodd" xmlns:xlink="http://www.w3.org/1999/xlink">
<g><path style="opacity:0.478" fill="#d2b8e1" d="M 255.5,71.5 C 254.265,71.2786 253.265,70.6119 252.5,69.5C 247.761,74.5771 242.761,79.2438 237.5,83.5C 241.255,78.2395 245.589,73.4062 250.5,69C 253.262,67.9231 254.928,68.7564 255.5,71.5 Z"/></g>
<g><path style="opacity:0.275" fill="#d3b9e2" d="M 255.5,71.5 C 259.299,75.0906 262.633,79.0906 265.5,83.5C 262.242,81.2494 259.242,78.5828 256.5,75.5C 255.571,74.3112 255.238,72.9778 255.5,71.5 Z"/></g>
<g><path style="opacity:0.889" fill="#ccabdf" d="M 237.5,83.5 C 237.025,87.3087 235.025,89.9754 231.5,91.5C 233.016,88.4669 235.016,85.8003 237.5,83.5 Z"/></g>
<g><path style="opacity:0.208" fill="#f5ebf5" d="M 267.5,85.5 C 268.906,85.9731 269.573,86.9731 269.5,88.5C 268.094,88.0269 267.427,87.0269 267.5,85.5 Z"/></g>
<g><path style="opacity:0.239" fill="#eee5ef" d="M 231.5,91.5 C 231.573,93.0269 230.906,94.0269 229.5,94.5C 229.427,92.9731 230.094,91.9731 231.5,91.5 Z"/></g>
<g><path style="opacity:0.161" fill="#d9c5e5" d="M 269.5,88.5 C 271.587,89.5846 272.92,91.2512 273.5,93.5C 271.071,92.7352 269.738,91.0685 269.5,88.5 Z"/></g>
<g><path style="opacity:0.941" fill="#cda9e0" d="M 273.5,93.5 C 277.18,97.183 280.514,101.183 283.5,105.5C 280.242,103.249 277.242,100.583 274.5,97.5C 273.571,96.3112 273.238,94.9778 273.5,93.5 Z"/></g>
<g><path style="opacity:0.537" fill="#d0c9d3" d="M 229.5,94.5 C 229.715,96.1788 229.048,97.1788 227.5,97.5C 227.932,96.2905 228.599,95.2905 229.5,94.5 Z"/></g>
<g><path style="opacity:0.999" fill="#a767e2" d="M 255.5,71.5 C 255.238,72.9778 255.571,74.3112 256.5,75.5C 259.242,78.5828 262.242,81.2494 265.5,83.5C 266.5,83.8333 267.167,84.5 267.5,85.5C 267.427,87.0269 268.094,88.0269 269.5,88.5C 269.738,91.0685 271.071,92.7352 273.5,93.5C 273.238,94.9778 273.571,96.3112 274.5,97.5C 277.242,100.583 280.242,103.249 283.5,105.5C 284.5,105.833 285.167,106.5 285.5,107.5C 285.427,109.027 286.094,110.027 287.5,110.5C 287.738,113.069 289.071,114.735 291.5,115.5C 292.5,115.833 293.167,116.5 293.5,117.5C 294.708,122.038 297.375,125.371 301.5,127.5C 302.5,127.833 303.167,128.5 303.5,129.5C 303.427,131.027 304.094,132.027 305.5,132.5C 305.5,132.833 305.5,133.167 305.5,133.5C 304.167,133.5 302.833,133.5 301.5,133.5C 301.5,132.167 301.5,130.833 301.5,129.5C 297.532,129.454 293.865,128.454 290.5,126.5C 284.289,127.243 278.289,126.243 272.5,123.5C 268.944,125.123 265.944,124.456 263.5,121.5C 257.13,121.752 250.797,121.752 244.5,121.5C 243.107,120.137 241.441,119.304 239.5,119C 233.517,117.969 227.517,117.136 221.5,116.5C 221.5,114.833 221.5,113.167 221.5,111.5C 221.5,111.167 221.5,110.833 221.5,110.5C 223.104,109.713 223.771,108.38 223.5,106.5C 223.5,106.167 223.5,105.833 223.5,105.5C 225.176,104.817 225.843,103.483 225.5,101.5C 227.048,101.179 227.715,100.179 227.5,98.5C 227.5,98.1667 227.5,97.8333 227.5,97.5C 229.048,97.1788 229.715,96.1788 229.5,94.5C 230.906,94.0269 231.573,93.0269 231.5,91.5C 235.025,89.9754 237.025,87.3087 237.5,83.5C 242.761,79.2438 247.761,74.5771 252.5,69.5C 253.265,70.6119 254.265,71.2786 255.5,71.5 Z"/></g>
<g><path style="opacity:0.059" fill="#ede1f0" d="M 227.5,98.5 C 227.715,100.179 227.048,101.179 225.5,101.5C 225.427,99.9731 226.094,98.9731 227.5,98.5 Z"/></g>
<g><path style="opacity:0.063" fill="#e8deeb" d="M 225.5,101.5 C 225.843,103.483 225.176,104.817 223.5,105.5C 223.66,103.847 224.326,102.514 225.5,101.5 Z"/></g>
<g><path style="opacity:0.22" fill="#f2e8f4" d="M 285.5,107.5 C 286.906,107.973 287.573,108.973 287.5,110.5C 286.094,110.027 285.427,109.027 285.5,107.5 Z"/></g>
<g><path style="opacity:0.075" fill="#f2ddf4" d="M 223.5,106.5 C 223.771,108.38 223.104,109.713 221.5,110.5C 221.66,108.847 222.326,107.514 223.5,106.5 Z"/></g>
<g><path style="opacity:0.176" fill="#d6c1e4" d="M 287.5,110.5 C 289.587,111.585 290.92,113.251 291.5,115.5C 289.071,114.735 287.738,113.069 287.5,110.5 Z"/></g>
<g><path style="opacity:0.545" fill="#cfb7db" d="M 221.5,111.5 C 221.5,113.167 221.5,114.833 221.5,116.5C 220.021,118.765 218.687,121.099 217.5,123.5C 217.861,119.085 219.194,115.085 221.5,111.5 Z"/></g>
<g><path style="opacity:0.999" fill="#a061e1" d="M 221.5,116.5 C 227.517,117.136 233.517,117.969 239.5,119C 241.441,119.304 243.107,120.137 244.5,121.5C 250.797,121.752 257.13,121.752 263.5,121.5C 265.944,124.456 268.944,125.123 272.5,123.5C 278.289,126.243 284.289,127.243 290.5,126.5C 293.865,128.454 297.532,129.454 301.5,129.5C 301.5,130.833 301.5,132.167 301.5,133.5C 302.833,133.5 304.167,133.5 305.5,133.5C 306.833,136.167 308.833,138.167 311.5,139.5C 312.708,144.038 315.375,147.371 319.5,149.5C 320.5,149.833 321.167,150.5 321.5,151.5C 322.582,155.123 324.582,158.123 327.5,160.5C 326.504,160.414 325.671,160.748 325,161.5C 321.272,158.561 317.106,157.895 312.5,159.5C 308.506,157.693 304.339,156.359 300,155.5C 298.983,158.028 297.816,158.028 296.5,155.5C 294.781,158.048 293.448,157.715 292.5,154.5C 290.694,155.859 289.194,155.525 288,153.5C 286.983,156.028 285.816,156.028 284.5,153.5C 282.633,156.229 281.633,155.896 281.5,152.5C 278.14,152.384 274.807,152.051 271.5,151.5C 271.719,152.675 271.386,153.675 270.5,154.5C 269.167,149.167 267.833,149.167 266.5,154.5C 265.833,152.833 265.167,151.167 264.5,149.5C 263.167,152.167 261.833,152.167 260.5,149.5C 258.781,152.048 257.448,151.715 256.5,148.5C 254.253,149.374 251.92,149.708 249.5,149.5C 249.719,148.325 249.386,147.325 248.5,146.5C 247.167,151.833 245.833,151.833 244.5,146.5C 242.208,144.976 240.208,145.309 238.5,147.5C 236.781,144.952 235.448,145.285 234.5,148.5C 233.571,147.311 233.238,145.978 233.5,144.5C 231.738,144.643 230.071,144.309 228.5,143.5C 226.936,146.136 225.603,145.969 224.5,143C 223.101,142.405 221.768,142.572 220.5,143.5C 218.581,142.388 216.914,141.054 215.5,139.5C 215.5,137.5 215.5,135.5 215.5,133.5C 215.5,132.833 215.5,132.167 215.5,131.5C 217.369,129.365 218.036,126.698 217.5,123.5C 218.687,121.099 220.021,118.765 221.5,116.5 Z"/></g>
<g><path style="opacity:0.004" fill="#e7d5ec" d="M 169.5,121.5 C 172.473,123.147 175.14,125.147 177.5,127.5C 173.691,127.025 171.025,125.025 169.5,121.5 Z"/></g>
<g><path style="opacity:0.553" fill="#cfb2e0" d="M 293.5,117.5 C 296.54,120.539 299.206,123.873 301.5,127.5C 297.375,125.371 294.708,122.038 293.5,117.5 Z"/></g>
<g><path style="opacity:0.576" fill="#dbcadf" d="M 169.5,121.5 C 167.5,122.833 165.5,124.167 163.5,125.5C 164.403,121.856 166.403,120.523 169.5,121.5 Z"/></g>
<g><path style="opacity:0.42" fill="#e0cfe6" d="M 163.5,125.5 C 163.083,128.343 162.083,131.01 160.5,133.5C 159.735,134.612 158.735,135.279 157.5,135.5C 159.012,131.799 161.012,128.466 163.5,125.5 Z"/></g>
<g><path style="opacity:0.424" fill="#dec4e7" d="M 177.5,127.5 C 180.473,129.147 183.14,131.147 185.5,133.5C 181.691,133.025 179.025,131.025 177.5,127.5 Z"/></g>
<g><path style="opacity:0.733" fill="#cab9d2" d="M 217.5,123.5 C 218.036,126.698 217.369,129.365 215.5,131.5C 215.565,128.572 216.232,125.905 217.5,123.5 Z"/></g>
<g><path style="opacity:0.239" fill="#eee6f1" d="M 303.5,129.5 C 304.906,129.973 305.573,130.973 305.5,132.5C 304.094,132.027 303.427,131.027 303.5,129.5 Z"/></g>
<g><path style="opacity:0.216" fill="#e2c9e9" d="M 185.5,133.5 C 188.533,135.016 191.2,137.016 193.5,139.5C 189.691,139.025 187.025,137.025 185.5,133.5 Z"/></g>
<g><path style="opacity:0.999" fill="#be7be8" d="M 169.5,121.5 C 171.025,125.025 173.691,127.025 177.5,127.5C 179.025,131.025 181.691,133.025 185.5,133.5C 187.025,137.025 189.691,139.025 193.5,139.5C 194.446,142.313 196.446,143.646 199.5,143.5C 201.025,147.025 203.691,149.025 207.5,149.5C 207.5,150.167 207.5,150.833 207.5,151.5C 206.167,151.5 204.833,151.5 203.5,151.5C 203.529,154.773 202.196,155.44 199.5,153.5C 198.328,153.919 197.328,154.585 196.5,155.5C 193.661,154.462 190.995,153.129 188.5,151.5C 187.167,155.5 185.833,155.5 184.5,151.5C 183.689,153.391 182.356,154.724 180.5,155.5C 180.167,155.167 179.833,154.833 179.5,154.5C 182.276,152.721 181.943,151.721 178.5,151.5C 176.754,151.971 175.087,152.638 173.5,153.5C 172.328,153.081 171.328,152.415 170.5,151.5C 169.167,154.167 167.833,154.167 166.5,151.5C 165.167,154.167 163.833,154.167 162.5,151.5C 161.833,152.167 161.167,152.833 160.5,153.5C 159.667,152.5 158.833,151.5 158,150.5C 157.43,153.844 156.264,154.177 154.5,151.5C 153.735,152.612 152.735,153.279 151.5,153.5C 151.5,152.833 151.5,152.167 151.5,151.5C 153.074,149.898 153.741,147.898 153.5,145.5C 156.133,143.223 157.466,140.223 157.5,136.5C 157.5,136.167 157.5,135.833 157.5,135.5C 158.735,135.279 159.735,134.612 160.5,133.5C 162.083,131.01 163.083,128.343 163.5,125.5C 165.5,124.167 167.5,122.833 169.5,121.5 Z"/></g>
<g><path style="opacity:0.22" fill="#d5c3e3" d="M 305.5,132.5 C 308.219,134.219 310.219,136.553 311.5,139.5C 308.833,138.167 306.833,136.167 305.5,133.5C 305.5,133.167 305.5,132.833 305.5,132.5 Z"/></g>
<g><path style="opacity:0.357" fill="#dec6e5" d="M 157.5,136.5 C 157.466,140.223 156.133,143.223 153.5,145.5C 154.075,142.088 155.408,139.088 157.5,136.5 Z"/></g>
<g><path style="opacity:0.651" fill="#dac0e4" d="M 193.5,139.5 C 195.777,140.449 197.777,141.782 199.5,143.5C 196.446,143.646 194.446,142.313 193.5,139.5 Z"/></g>
<g><path style="opacity:0.561" fill="#ccaede" d="M 311.5,139.5 C 314.54,142.539 317.206,145.873 319.5,149.5C 315.375,147.371 312.708,144.038 311.5,139.5 Z"/></g>
<g><path style="opacity:0.424" fill="#dec7e6" d="M 199.5,143.5 C 202.473,145.147 205.14,147.147 207.5,149.5C 203.691,149.025 201.025,147.025 199.5,143.5 Z"/></g>
<g><path style="opacity:0.392" fill="#eadfed" d="M 153.5,145.5 C 153.741,147.898 153.074,149.898 151.5,151.5C 151.595,149.214 152.262,147.214 153.5,145.5 Z"/></g>
<g><path style="opacity:0.204" fill="#e2d5e8" d="M 215.5,133.5 C 215.5,135.5 215.5,137.5 215.5,139.5C 215.5,144.833 215.5,150.167 215.5,155.5C 212.736,154.357 210.069,153.023 207.5,151.5C 207.5,150.833 207.5,150.167 207.5,149.5C 209.394,150.048 211.06,151.048 212.5,152.5C 213.572,146.035 214.572,139.702 215.5,133.5 Z"/></g>
<g><path style="opacity:0.467" fill="#e0d6e3" d="M 151.5,151.5 C 151.5,152.167 151.5,152.833 151.5,153.5C 151.843,155.483 151.176,156.817 149.5,157.5C 149.595,155.214 150.262,153.214 151.5,151.5 Z"/></g>
<g><path style="opacity:0.482" fill="#d6c2e3" d="M 321.5,151.5 C 324.516,154.52 327.183,157.854 329.5,161.5C 328.508,161.672 327.842,161.338 327.5,160.5C 324.582,158.123 322.582,155.123 321.5,151.5 Z"/></g>
<g><path style="opacity:1" fill="#975ddd" d="M 215.5,139.5 C 216.914,141.054 218.581,142.388 220.5,143.5C 221.768,142.572 223.101,142.405 224.5,143C 225.603,145.969 226.936,146.136 228.5,143.5C 230.071,144.309 231.738,144.643 233.5,144.5C 233.238,145.978 233.571,147.311 234.5,148.5C 235.448,145.285 236.781,144.952 238.5,147.5C 240.208,145.309 242.208,144.976 244.5,146.5C 245.833,151.833 247.167,151.833 248.5,146.5C 249.386,147.325 249.719,148.325 249.5,149.5C 251.92,149.708 254.253,149.374 256.5,148.5C 257.448,151.715 258.781,152.048 260.5,149.5C 261.833,152.167 263.167,152.167 264.5,149.5C 265.167,151.167 265.833,152.833 266.5,154.5C 267.833,149.167 269.167,149.167 270.5,154.5C 271.386,153.675 271.719,152.675 271.5,151.5C 274.807,152.051 278.14,152.384 281.5,152.5C 281.633,155.896 282.633,156.229 284.5,153.5C 285.816,156.028 286.983,156.028 288,153.5C 289.194,155.525 290.694,155.859 292.5,154.5C 293.448,157.715 294.781,158.048 296.5,155.5C 297.816,158.028 298.983,158.028 300,155.5C 304.339,156.359 308.506,157.693 312.5,159.5C 317.106,157.895 321.272,158.561 325,161.5C 325.671,160.748 326.504,160.414 327.5,160.5C 327.842,161.338 328.508,161.672 329.5,161.5C 330.66,165.998 333.326,169.331 337.5,171.5C 337.5,172.833 338.167,173.5 339.5,173.5C 340.727,178.009 343.393,181.343 347.5,183.5C 347.5,184.833 348.167,185.5 349.5,185.5C 349.427,187.027 350.094,188.027 351.5,188.5C 351.738,191.069 353.071,192.735 355.5,193.5C 356.5,193.833 357.167,194.5 357.5,195.5C 357.427,197.027 358.094,198.027 359.5,198.5C 360.418,201.752 362.418,204.086 365.5,205.5C 365.5,206.833 366.167,207.5 367.5,207.5C 367.427,209.027 368.094,210.027 369.5,210.5C 369.5,211.5 369.5,212.5 369.5,213.5C 367.043,213.208 364.376,213.208 361.5,213.5C 361.762,212.022 361.429,210.689 360.5,209.5C 357.852,211.019 355.018,212.019 352,212.5C 350.686,211.687 349.519,210.687 348.5,209.5C 347.833,210.167 347.167,210.833 346.5,211.5C 342.361,209.972 338.028,208.972 333.5,208.5C 331.668,207.752 330.001,206.752 328.5,205.5C 327.167,208.167 325.833,208.167 324.5,205.5C 323.833,206.167 323.167,206.833 322.5,207.5C 319.167,206.167 315.833,204.833 312.5,203.5C 311.833,204.167 311.167,204.833 310.5,205.5C 303.064,203.926 295.731,201.926 288.5,199.5C 287.833,200.167 287.167,200.833 286.5,201.5C 285.833,200.167 285.167,198.833 284.5,197.5C 283.377,198.544 282.044,199.21 280.5,199.5C 278.124,198.774 276.124,197.441 274.5,195.5C 273.478,195.855 272.811,196.522 272.5,197.5C 268.656,195.078 264.99,192.411 261.5,189.5C 253.091,183.085 244.424,177.085 235.5,171.5C 229.122,165.787 222.455,160.453 215.5,155.5C 215.5,150.167 215.5,144.833 215.5,139.5 Z"/></g>
<g><path style="opacity:1" fill="#b877e7" d="M 207.5,151.5 C 210.069,153.023 212.736,154.357 215.5,155.5C 222.455,160.453 229.122,165.787 235.5,171.5C 234.878,173.456 233.545,174.789 231.5,175.5C 223.841,174.089 216.174,172.756 208.5,171.5C 204.886,172.132 201.219,172.465 197.5,172.5C 181.52,171.841 165.686,171.174 150,170.5C 147.733,177.612 146.9,184.945 147.5,192.5C 146.188,184.932 146.188,177.265 147.5,169.5C 149.082,166.124 149.749,162.458 149.5,158.5C 149.5,158.167 149.5,157.833 149.5,157.5C 151.176,156.817 151.843,155.483 151.5,153.5C 152.735,153.279 153.735,152.612 154.5,151.5C 156.264,154.177 157.43,153.844 158,150.5C 158.833,151.5 159.667,152.5 160.5,153.5C 161.167,152.833 161.833,152.167 162.5,151.5C 163.833,154.167 165.167,154.167 166.5,151.5C 167.833,154.167 169.167,154.167 170.5,151.5C 171.328,152.415 172.328,153.081 173.5,153.5C 175.087,152.638 176.754,151.971 178.5,151.5C 181.943,151.721 182.276,152.721 179.5,154.5C 179.833,154.833 180.167,155.167 180.5,155.5C 182.356,154.724 183.689,153.391 184.5,151.5C 185.833,155.5 187.167,155.5 188.5,151.5C 190.995,153.129 193.661,154.462 196.5,155.5C 197.328,154.585 198.328,153.919 199.5,153.5C 202.196,155.44 203.529,154.773 203.5,151.5C 204.833,151.5 206.167,151.5 207.5,151.5 Z"/></g>
<g><path style="opacity:0.894" fill="#c7a9dd" d="M 329.5,161.5 C 332.54,164.539 335.206,167.873 337.5,171.5C 333.326,169.331 330.66,165.998 329.5,161.5 Z"/></g>
<g><path style="opacity:0.082" fill="#f6ebf8" d="M 149.5,158.5 C 149.749,162.458 149.082,166.124 147.5,169.5C 147.43,165.575 148.097,161.909 149.5,158.5 Z"/></g>
<g><path style="opacity:0.522" fill="#d2c9d4" d="M 337.5,171.5 C 338.5,171.833 339.167,172.5 339.5,173.5C 338.167,173.5 337.5,172.833 337.5,171.5 Z"/></g>
<g><path style="opacity:0.999" fill="#b06fe4" d="M 235.5,171.5 C 244.424,177.085 253.091,183.085 261.5,189.5C 261.423,190.75 260.756,191.583 259.5,192C 254.167,192.667 248.833,192.667 243.5,192C 242.354,191.355 241.354,190.522 240.5,189.5C 237.362,190.744 234.028,191.411 230.5,191.5C 204.444,190.665 178.444,189.331 152.5,187.5C 149.894,189.418 148.894,192.084 149.5,195.5C 148.833,194.833 148.167,194.167 147.5,193.5C 147.5,193.167 147.5,192.833 147.5,192.5C 146.9,184.945 147.733,177.612 150,170.5C 165.686,171.174 181.52,171.841 197.5,172.5C 201.219,172.465 204.886,172.132 208.5,171.5C 216.174,172.756 223.841,174.089 231.5,175.5C 233.545,174.789 234.878,173.456 235.5,171.5 Z"/></g>
<g><path style="opacity:0.514" fill="#d2bbe1" d="M 339.5,173.5 C 342.516,176.52 345.183,179.854 347.5,183.5C 343.393,181.343 340.727,178.009 339.5,173.5 Z"/></g>
<g><path style="opacity:0.478" fill="#dad7db" d="M 347.5,183.5 C 348.5,183.833 349.167,184.5 349.5,185.5C 348.167,185.5 347.5,184.833 347.5,183.5 Z"/></g>
<g><path style="opacity:0.231" fill="#f3ebf4" d="M 349.5,185.5 C 350.906,185.973 351.573,186.973 351.5,188.5C 350.094,188.027 349.427,187.027 349.5,185.5 Z"/></g>
<g><path style="opacity:0.173" fill="#d3bee2" d="M 351.5,188.5 C 353.587,189.585 354.92,191.251 355.5,193.5C 353.071,192.735 351.738,191.069 351.5,188.5 Z"/></g>
<g><path style="opacity:1" fill="#ab6ae4" d="M 261.5,189.5 C 264.99,192.411 268.656,195.078 272.5,197.5C 276.833,200.833 281.167,204.167 285.5,207.5C 285.5,208.833 285.5,210.167 285.5,211.5C 283.549,211.773 282.049,211.107 281,209.5C 276.459,210.054 271.626,210.387 266.5,210.5C 245.506,209.528 224.506,208.695 203.5,208C 200.237,207.936 197.237,207.102 194.5,205.5C 191.833,208.167 189.167,208.167 186.5,205.5C 185.377,206.544 184.044,207.21 182.5,207.5C 172.192,206.572 161.859,206.239 151.5,206.5C 149.778,203.08 149.111,199.414 149.5,195.5C 148.894,192.084 149.894,189.418 152.5,187.5C 178.444,189.331 204.444,190.665 230.5,191.5C 234.028,191.411 237.362,190.744 240.5,189.5C 241.354,190.522 242.354,191.355 243.5,192C 248.833,192.667 254.167,192.667 259.5,192C 260.756,191.583 261.423,190.75 261.5,189.5 Z"/></g>
<g><path style="opacity:0.329" fill="#e7dbea" d="M 357.5,195.5 C 358.906,195.973 359.573,196.973 359.5,198.5C 358.094,198.027 357.427,197.027 357.5,195.5 Z"/></g>
<g><path style="opacity:1" fill="#8d5cd9" d="M 369.5,213.5 C 371.5,214.833 373.5,216.167 375.5,217.5C 376.708,222.038 379.375,225.371 383.5,227.5C 384.5,227.833 385.167,228.5 385.5,229.5C 385.5,230.167 385.5,230.833 385.5,231.5C 384.739,232.391 383.739,233.058 382.5,233.5C 378.296,231.409 373.963,230.743 369.5,231.5C 367.61,230.388 365.61,229.554 363.5,229C 352.838,227.334 342.172,225.667 331.5,224C 334.028,223.002 334.028,222.169 331.5,221.5C 330.328,221.919 329.328,222.585 328.5,223.5C 323.249,222.13 317.916,221.13 312.5,220.5C 310.443,220.436 308.777,221.102 307.5,222.5C 299.893,217.891 292.559,212.891 285.5,207.5C 281.167,204.167 276.833,200.833 272.5,197.5C 272.811,196.522 273.478,195.855 274.5,195.5C 276.124,197.441 278.124,198.774 280.5,199.5C 282.044,199.21 283.377,198.544 284.5,197.5C 285.167,198.833 285.833,200.167 286.5,201.5C 287.167,200.833 287.833,200.167 288.5,199.5C 295.731,201.926 303.064,203.926 310.5,205.5C 311.167,204.833 311.833,204.167 312.5,203.5C 315.833,204.833 319.167,206.167 322.5,207.5C 323.167,206.833 323.833,206.167 324.5,205.5C 325.833,208.167 327.167,208.167 328.5,205.5C 330.001,206.752 331.668,207.752 333.5,208.5C 338.028,208.972 342.361,209.972 346.5,211.5C 347.167,210.833 347.833,210.167 348.5,209.5C 349.519,210.687 350.686,211.687 352,212.5C 355.018,212.019 357.852,211.019 360.5,209.5C 361.429,210.689 361.762,212.022 361.5,213.5C 364.376,213.208 367.043,213.208 369.5,213.5 Z"/></g>
<g><path style="opacity:0.278" fill="#cab4de" d="M 359.5,198.5 C 362.219,200.219 364.219,202.553 365.5,205.5C 362.418,204.086 360.418,201.752 359.5,198.5 Z"/></g>
<g><path style="opacity:1" fill="#a565e2" d="M 285.5,207.5 C 292.559,212.891 299.893,217.891 307.5,222.5C 310.19,225.185 313.19,227.518 316.5,229.5C 316.631,230.239 316.464,230.906 316,231.5C 314.215,230.76 312.382,230.093 310.5,229.5C 304.443,230.251 298.443,230.584 292.5,230.5C 277.967,229.762 263.967,228.762 250.5,227.5C 248.644,228.276 247.311,229.609 246.5,231.5C 245.8,228.985 244.467,228.318 242.5,229.5C 241.5,229 240.5,228.5 239.5,228C 234.177,227.501 228.844,227.334 223.5,227.5C 222.996,231.335 221.996,231.335 220.5,227.5C 219.167,231.5 217.833,231.5 216.5,227.5C 214.5,226.833 212.5,226.167 210.5,225.5C 204.5,225.833 198.5,226.167 192.5,226.5C 181.508,225.596 170.508,225.096 159.5,225C 162.113,226.071 162.113,226.905 159.5,227.5C 158.833,227.5 158.167,227.5 157.5,227.5C 157.843,225.517 157.176,224.183 155.5,223.5C 154.008,217.866 152.675,212.199 151.5,206.5C 161.859,206.239 172.192,206.572 182.5,207.5C 184.044,207.21 185.377,206.544 186.5,205.5C 189.167,208.167 191.833,208.167 194.5,205.5C 197.237,207.102 200.237,207.936 203.5,208C 224.506,208.695 245.506,209.528 266.5,210.5C 271.626,210.387 276.459,210.054 281,209.5C 282.049,211.107 283.549,211.773 285.5,211.5C 285.5,210.167 285.5,208.833 285.5,207.5 Z"/></g>
<g><path style="opacity:0.506" fill="#d6d3d7" d="M 365.5,205.5 C 366.5,205.833 367.167,206.5 367.5,207.5C 366.167,207.5 365.5,206.833 365.5,205.5 Z"/></g>
<g><path style="opacity:0.196" fill="#e3d3ea" d="M 147.5,193.5 C 148.167,194.167 148.833,194.833 149.5,195.5C 149.111,199.414 149.778,203.08 151.5,206.5C 152.675,212.199 154.008,217.866 155.5,223.5C 150.982,214.101 148.315,204.101 147.5,193.5 Z"/></g>
<g><path style="opacity:0.267" fill="#f0e7f2" d="M 367.5,207.5 C 368.906,207.973 369.573,208.973 369.5,210.5C 368.094,210.027 367.427,209.027 367.5,207.5 Z"/></g>
<g><path style="opacity:0.22" fill="#d1c0e2" d="M 369.5,210.5 C 372.219,212.219 374.219,214.553 375.5,217.5C 373.5,216.167 371.5,214.833 369.5,213.5C 369.5,212.5 369.5,211.5 369.5,210.5 Z"/></g>
<g><path style="opacity:0.698" fill="#ebdaec" d="M 83.5,213.5 C 83.7406,215.898 83.0739,217.898 81.5,219.5C 81.2594,217.102 81.9261,215.102 83.5,213.5 Z"/></g>
<g><path style="opacity:0.333" fill="#eddeef" d="M 89.5,213.5 C 95.3925,215.129 101.059,217.129 106.5,219.5C 100.168,218.851 94.5017,216.851 89.5,213.5 Z"/></g>
<g><path style="opacity:0.341" fill="#e5dae8" d="M 107.5,219.5 C 109.153,219.66 110.486,220.326 111.5,221.5C 109.517,221.843 108.183,221.176 107.5,219.5 Z"/></g>
<g><path style="opacity:1" fill="#875bd7" d="M 385.5,231.5 C 386.167,231.833 386.833,232.167 387.5,232.5C 388.418,235.752 390.418,238.086 393.5,239.5C 393.731,242.063 395.065,243.73 397.5,244.5C 397.738,247.069 399.071,248.735 401.5,249.5C 402.5,249.833 403.167,250.5 403.5,251.5C 403.5,252.167 403.5,252.833 403.5,253.5C 403.631,254.239 403.464,254.906 403,255.5C 401.542,254.253 400.042,254.253 398.5,255.5C 395.833,252.833 393.167,252.833 390.5,255.5C 389.8,252.985 388.467,252.318 386.5,253.5C 382.605,251.517 378.605,250.851 374.5,251.5C 371.386,249.887 368.053,248.887 364.5,248.5C 363.833,248.833 363.167,249.167 362.5,249.5C 360.358,248.399 358.192,247.399 356,246.5C 355.751,247.624 355.251,248.624 354.5,249.5C 352.924,246.125 350.257,244.792 346.5,245.5C 344.36,245.556 342.694,246.223 341.5,247.5C 340.833,247.5 340.167,247.5 339.5,247.5C 332.094,241.281 324.427,235.281 316.5,229.5C 313.19,227.518 310.19,225.185 307.5,222.5C 308.777,221.102 310.443,220.436 312.5,220.5C 317.916,221.13 323.249,222.13 328.5,223.5C 329.328,222.585 330.328,221.919 331.5,221.5C 334.028,222.169 334.028,223.002 331.5,224C 342.172,225.667 352.838,227.334 363.5,229C 365.61,229.554 367.61,230.388 369.5,231.5C 373.963,230.743 378.296,231.409 382.5,233.5C 383.739,233.058 384.739,232.391 385.5,231.5 Z"/></g>
<g><path style="opacity:0.58" fill="#c5adda" d="M 375.5,217.5 C 378.54,220.539 381.206,223.873 383.5,227.5C 379.375,225.371 376.708,222.038 375.5,217.5 Z"/></g>
<g><path style="opacity:0.906" fill="#e1c5e7" d="M 113.5,221.5 C 117.379,222.458 121.045,223.791 124.5,225.5C 120.042,225.857 116.376,224.524 113.5,221.5 Z"/></g>
<g><path style="opacity:0.396" fill="#d5c7db" d="M 155.5,223.5 C 157.176,224.183 157.843,225.517 157.5,227.5C 156.326,226.486 155.66,225.153 155.5,223.5 Z"/></g>
<g><path style="opacity:1" fill="#9f60e1" d="M 316.5,229.5 C 324.427,235.281 332.094,241.281 339.5,247.5C 339.38,248.586 338.713,249.253 337.5,249.5C 335.528,248.695 334.028,247.361 333,245.5C 332.196,246.804 331.029,247.471 329.5,247.5C 326.284,246.205 322.951,245.538 319.5,245.5C 318.996,249.335 317.996,249.335 316.5,245.5C 315.167,249.5 313.833,249.5 312.5,245.5C 311.167,249.5 309.833,249.5 308.5,245.5C 307.167,249.5 305.833,249.5 304.5,245.5C 303.167,249.5 301.833,249.5 300.5,245.5C 299.554,245.013 298.554,244.68 297.5,244.5C 289.596,244.918 281.93,245.251 274.5,245.5C 272.781,242.952 271.448,243.285 270.5,246.5C 269.167,242.5 267.833,242.5 266.5,246.5C 265.167,245.167 263.833,245.167 262.5,246.5C 261.614,245.675 261.281,244.675 261.5,243.5C 258.832,243.666 256.498,244.666 254.5,246.5C 253.614,245.675 253.281,244.675 253.5,243.5C 244.143,242.381 235.143,242.381 226.5,243.5C 224.382,242.054 222.049,241.387 219.5,241.5C 218.996,245.335 217.996,245.335 216.5,241.5C 215.167,245.5 213.833,245.5 212.5,241.5C 211.004,245.335 210.004,245.335 209.5,241.5C 207.5,241.5 205.5,241.5 203.5,241.5C 202.996,245.335 201.996,245.335 200.5,241.5C 198.781,244.048 197.448,243.715 196.5,240.5C 195.167,244.5 193.833,244.5 192.5,240.5C 191.167,241.833 189.833,241.833 188.5,240.5C 186.123,241.544 184.456,243.21 183.5,245.5C 176.517,243.431 169.85,240.764 163.5,237.5C 163.5,236.167 162.833,235.5 161.5,235.5C 161.843,233.517 161.176,232.183 159.5,231.5C 159.5,230.167 159.5,228.833 159.5,227.5C 162.113,226.905 162.113,226.071 159.5,225C 170.508,225.096 181.508,225.596 192.5,226.5C 198.5,226.167 204.5,225.833 210.5,225.5C 212.5,226.167 214.5,226.833 216.5,227.5C 217.833,231.5 219.167,231.5 220.5,227.5C 221.996,231.335 222.996,231.335 223.5,227.5C 228.844,227.334 234.177,227.501 239.5,228C 240.5,228.5 241.5,229 242.5,229.5C 244.467,228.318 245.8,228.985 246.5,231.5C 247.311,229.609 248.644,228.276 250.5,227.5C 263.967,228.762 277.967,229.762 292.5,230.5C 298.443,230.584 304.443,230.251 310.5,229.5C 312.382,230.093 314.215,230.76 316,231.5C 316.464,230.906 316.631,230.239 316.5,229.5 Z"/></g>
<g><path style="opacity:0.133" fill="#f6ebf6" d="M 81.5,219.5 C 81.8893,222.553 81.2227,225.22 79.5,227.5C 79.5651,224.572 80.2318,221.905 81.5,219.5 Z"/></g>
<g><path style="opacity:0.996" fill="#cd88eb" d="M 89.5,213.5 C 94.5017,216.851 100.168,218.851 106.5,219.5C 106.833,219.5 107.167,219.5 107.5,219.5C 108.183,221.176 109.517,221.843 111.5,221.5C 112.167,221.5 112.833,221.5 113.5,221.5C 116.376,224.524 120.042,225.857 124.5,225.5C 124.833,225.5 125.167,225.5 125.5,225.5C 128.376,228.524 132.042,229.857 136.5,229.5C 136.833,229.5 137.167,229.5 137.5,229.5C 138.918,231.308 140.918,231.975 143.5,231.5C 145.102,233.074 147.102,233.741 149.5,233.5C 150.918,235.308 152.918,235.975 155.5,235.5C 155.5,236.167 155.5,236.833 155.5,237.5C 153.508,237.328 151.842,237.995 150.5,239.5C 146.063,237.533 141.396,236.2 136.5,235.5C 134.5,236.833 132.5,238.167 130.5,239.5C 128.533,238.318 127.2,238.985 126.5,241.5C 125.167,237.5 123.833,237.5 122.5,241.5C 121.167,239.5 119.833,237.5 118.5,235.5C 115.584,237.994 112.584,237.994 109.5,235.5C 107.545,236.453 105.878,237.787 104.5,239.5C 103.167,236.833 101.833,236.833 100.5,239.5C 99.8076,238.975 99.3076,238.308 99,237.5C 94.1973,238.812 89.364,238.812 84.5,237.5C 82.7988,238.554 81.1321,239.554 79.5,240.5C 79.5,236.5 79.5,232.5 79.5,228.5C 79.5,228.167 79.5,227.833 79.5,227.5C 81.2227,225.22 81.8893,222.553 81.5,219.5C 83.0739,217.898 83.7406,215.898 83.5,213.5C 85.3469,212.427 87.3469,212.427 89.5,213.5 Z"/></g>
<g><path style="opacity:0.931" fill="#ddbbe5" d="M 125.5,225.5 C 129.395,226.462 133.061,227.796 136.5,229.5C 132.042,229.857 128.376,228.524 125.5,225.5 Z"/></g>
<g><path style="opacity:0.459" fill="#d3badc" d="M 157.5,227.5 C 158.167,227.5 158.833,227.5 159.5,227.5C 159.5,228.833 159.5,230.167 159.5,231.5C 158.326,230.486 157.66,229.153 157.5,227.5 Z"/></g>
<g><path style="opacity:0.014" fill="#efe6f0" d="M 137.5,229.5 C 139.698,229.875 141.698,230.542 143.5,231.5C 140.918,231.975 138.918,231.308 137.5,229.5 Z"/></g>
<g><path style="opacity:0.247" fill="#ece5f0" d="M 385.5,229.5 C 386.906,229.973 387.573,230.973 387.5,232.5C 386.833,232.167 386.167,231.833 385.5,231.5C 385.5,230.833 385.5,230.167 385.5,229.5 Z"/></g>
<g><path style="opacity:0.106" fill="#f6eff9" d="M 143.5,231.5 C 145.786,231.595 147.786,232.262 149.5,233.5C 147.102,233.741 145.102,233.074 143.5,231.5 Z"/></g>
<g><path style="opacity:0.369" fill="#d9cde2" d="M 159.5,231.5 C 161.176,232.183 161.843,233.517 161.5,235.5C 160.326,234.486 159.66,233.153 159.5,231.5 Z"/></g>
<g><path style="opacity:0.022" fill="#ece0ee" d="M 149.5,233.5 C 151.698,233.875 153.698,234.542 155.5,235.5C 152.918,235.975 150.918,235.308 149.5,233.5 Z"/></g>
<g><path style="opacity:0.022" fill="#efe1f1" d="M 155.5,235.5 C 157.653,236.573 159.653,236.573 161.5,235.5C 162.833,235.5 163.5,236.167 163.5,237.5C 161.081,237.805 158.414,237.805 155.5,237.5C 155.5,236.833 155.5,236.167 155.5,235.5 Z"/></g>
<g><path style="opacity:0.243" fill="#cebedf" d="M 387.5,232.5 C 390.219,234.219 392.219,236.553 393.5,239.5C 390.418,238.086 388.418,235.752 387.5,232.5 Z"/></g>
<g><path style="opacity:0.999" fill="#c480e9" d="M 155.5,237.5 C 158.414,237.805 161.081,237.805 163.5,237.5C 169.85,240.764 176.517,243.431 183.5,245.5C 185.746,246.455 188.079,247.122 190.5,247.5C 186.513,250.669 181.846,252.002 176.5,251.5C 173.629,251.382 170.962,250.716 168.5,249.5C 165.833,250.833 163.167,252.167 160.5,253.5C 158.45,252.923 157.45,251.59 157.5,249.5C 155.334,249.579 153.334,250.246 151.5,251.5C 149.404,249.932 147.738,250.266 146.5,252.5C 141.603,252.624 136.936,251.957 132.5,250.5C 115.685,253.744 98.6846,255.411 81.5,255.5C 81.5,256.833 81.5,258.167 81.5,259.5C 79.5437,253.588 78.8771,247.255 79.5,240.5C 81.1321,239.554 82.7988,238.554 84.5,237.5C 89.364,238.812 94.1973,238.812 99,237.5C 99.3076,238.308 99.8076,238.975 100.5,239.5C 101.833,236.833 103.167,236.833 104.5,239.5C 105.878,237.787 107.545,236.453 109.5,235.5C 112.584,237.994 115.584,237.994 118.5,235.5C 119.833,237.5 121.167,239.5 122.5,241.5C 123.833,237.5 125.167,237.5 126.5,241.5C 127.2,238.985 128.533,238.318 130.5,239.5C 132.5,238.167 134.5,236.833 136.5,235.5C 141.396,236.2 146.063,237.533 150.5,239.5C 151.842,237.995 153.508,237.328 155.5,237.5 Z"/></g>
<g><path style="opacity:0.01" fill="#eee4f1" d="M 79.5,228.5 C 79.5,232.5 79.5,236.5 79.5,240.5C 78.8771,247.255 79.5437,253.588 81.5,259.5C 81.5,261.167 81.5,262.833 81.5,264.5C 81.5,266.833 81.5,269.167 81.5,271.5C 77.2715,257.309 76.6049,242.976 79.5,228.5 Z"/></g>
<g><path style="opacity:0.212" fill="#e1d3ec" d="M 393.5,239.5 C 395.587,240.585 396.92,242.251 397.5,244.5C 395.065,243.73 393.731,242.063 393.5,239.5 Z"/></g>
<g><path style="opacity:1" fill="#995dde" d="M 339.5,247.5 C 340.167,247.5 340.833,247.5 341.5,247.5C 347.673,252.945 354.339,257.945 361.5,262.5C 362.612,263.265 363.279,264.265 363.5,265.5C 362.069,265.881 361.236,266.881 361,268.5C 360.167,267.5 359.333,266.5 358.5,265.5C 356.5,268.167 354.5,268.167 352.5,265.5C 341.034,266.7 329.534,266.7 318,265.5C 315.293,265.628 312.793,266.295 310.5,267.5C 307.082,265.848 303.415,265.015 299.5,265C 290.071,264.692 280.738,264.526 271.5,264.5C 271.719,263.325 271.386,262.325 270.5,261.5C 264.04,263.243 257.373,264.077 250.5,264C 251.337,265.011 251.67,266.178 251.5,267.5C 241.08,264.314 230.747,260.981 220.5,257.5C 210.297,254.73 200.297,251.397 190.5,247.5C 188.079,247.122 185.746,246.455 183.5,245.5C 184.456,243.21 186.123,241.544 188.5,240.5C 189.833,241.833 191.167,241.833 192.5,240.5C 193.833,244.5 195.167,244.5 196.5,240.5C 197.448,243.715 198.781,244.048 200.5,241.5C 201.996,245.335 202.996,245.335 203.5,241.5C 205.5,241.5 207.5,241.5 209.5,241.5C 210.004,245.335 211.004,245.335 212.5,241.5C 213.833,245.5 215.167,245.5 216.5,241.5C 217.996,245.335 218.996,245.335 219.5,241.5C 222.049,241.387 224.382,242.054 226.5,243.5C 235.143,242.381 244.143,242.381 253.5,243.5C 253.281,244.675 253.614,245.675 254.5,246.5C 256.498,244.666 258.832,243.666 261.5,243.5C 261.281,244.675 261.614,245.675 262.5,246.5C 263.833,245.167 265.167,245.167 266.5,246.5C 267.833,242.5 269.167,242.5 270.5,246.5C 271.448,243.285 272.781,242.952 274.5,245.5C 281.93,245.251 289.596,244.918 297.5,244.5C 298.554,244.68 299.554,245.013 300.5,245.5C 301.833,249.5 303.167,249.5 304.5,245.5C 305.833,249.5 307.167,249.5 308.5,245.5C 309.833,249.5 311.167,249.5 312.5,245.5C 313.833,249.5 315.167,249.5 316.5,245.5C 317.996,249.335 318.996,249.335 319.5,245.5C 322.951,245.538 326.284,246.205 329.5,247.5C 331.029,247.471 332.196,246.804 333,245.5C 334.028,247.361 335.528,248.695 337.5,249.5C 338.713,249.253 339.38,248.586 339.5,247.5 Z"/></g>
<g><path style="opacity:0.999" fill="#815ad5" d="M 403.5,253.5 C 404.167,253.833 404.833,254.167 405.5,254.5C 405.738,257.069 407.071,258.735 409.5,259.5C 409.5,260.833 410.167,261.5 411.5,261.5C 412.66,265.998 415.326,269.331 419.5,271.5C 419.5,272.833 420.167,273.5 421.5,273.5C 421.738,275.404 422.738,276.738 424.5,277.5C 425.096,279.745 426.096,281.745 427.5,283.5C 427.631,284.376 427.298,285.043 426.5,285.5C 425.304,285.154 425.304,284.654 426.5,284C 417.59,283.46 408.923,281.96 400.5,279.5C 399.784,280.311 398.95,280.978 398,281.5C 396.962,280.057 395.128,278.724 392.5,277.5C 391.833,278.167 391.167,278.833 390.5,279.5C 388.807,277.721 386.807,277.221 384.5,278C 385.056,278.383 385.389,278.883 385.5,279.5C 384.833,279.5 384.167,279.5 383.5,279.5C 378.544,274.895 373.211,270.562 367.5,266.5C 366.311,265.571 364.978,265.238 363.5,265.5C 363.279,264.265 362.612,263.265 361.5,262.5C 354.339,257.945 347.673,252.945 341.5,247.5C 342.694,246.223 344.36,245.556 346.5,245.5C 350.257,244.792 352.924,246.125 354.5,249.5C 355.251,248.624 355.751,247.624 356,246.5C 358.192,247.399 360.358,248.399 362.5,249.5C 363.167,249.167 363.833,248.833 364.5,248.5C 368.053,248.887 371.386,249.887 374.5,251.5C 378.605,250.851 382.605,251.517 386.5,253.5C 388.467,252.318 389.8,252.985 390.5,255.5C 393.167,252.833 395.833,252.833 398.5,255.5C 400.042,254.253 401.542,254.253 403,255.5C 403.464,254.906 403.631,254.239 403.5,253.5 Z"/></g>
<g><path style="opacity:0.133" fill="#d0c4e0" d="M 397.5,244.5 C 399.587,245.585 400.92,247.251 401.5,249.5C 399.071,248.735 397.738,247.069 397.5,244.5 Z"/></g>
<g><path style="opacity:1" fill="#be7ae8" d="M 190.5,247.5 C 200.297,251.397 210.297,254.73 220.5,257.5C 219.504,260.208 217.837,260.874 215.5,259.5C 214.328,259.919 213.328,260.585 212.5,261.5C 211.672,260.585 210.672,259.919 209.5,259.5C 205.954,260.674 202.287,261.34 198.5,261.5C 194.972,261.411 191.638,260.744 188.5,259.5C 187.167,262.167 185.833,262.167 184.5,259.5C 183.167,260.833 181.833,262.167 180.5,263.5C 179.167,262.833 177.833,262.167 176.5,261.5C 173.833,261.5 171.167,261.5 168.5,261.5C 164.5,264.167 160.5,264.167 156.5,261.5C 155.167,264.167 153.833,264.167 152.5,261.5C 151.167,264.167 149.833,264.167 148.5,261.5C 147.106,263.984 145.606,263.984 144,261.5C 142.989,261.892 142.489,262.559 142.5,263.5C 139.542,260.707 137.542,261.374 136.5,265.5C 135.167,262.833 133.833,262.833 132.5,265.5C 131.167,264.833 129.833,264.167 128.5,263.5C 125.684,262.87 123.018,263.536 120.5,265.5C 119.167,262.833 117.833,262.833 116.5,265.5C 115.833,264.833 115.167,264.167 114.5,263.5C 112.5,266.167 110.5,266.167 108.5,263.5C 107.167,266.167 105.833,266.167 104.5,263.5C 103.167,266.167 101.833,266.167 100.5,263.5C 99.1667,267.5 97.8333,267.5 96.5,263.5C 95.8333,264.167 95.1667,264.833 94.5,265.5C 92.9291,264.691 91.2624,264.357 89.5,264.5C 88.8333,268.5 88.1667,268.5 87.5,264.5C 85.5,264.5 83.5,264.5 81.5,264.5C 81.5,262.833 81.5,261.167 81.5,259.5C 81.5,258.167 81.5,256.833 81.5,255.5C 98.6846,255.411 115.685,253.744 132.5,250.5C 136.936,251.957 141.603,252.624 146.5,252.5C 147.738,250.266 149.404,249.932 151.5,251.5C 153.334,250.246 155.334,249.579 157.5,249.5C 157.45,251.59 158.45,252.923 160.5,253.5C 163.167,252.167 165.833,250.833 168.5,249.5C 170.962,250.716 173.629,251.382 176.5,251.5C 181.846,252.002 186.513,250.669 190.5,247.5 Z"/></g>
<g><path style="opacity:0.251" fill="#e8e0ed" d="M 403.5,251.5 C 404.906,251.973 405.573,252.973 405.5,254.5C 404.833,254.167 404.167,253.833 403.5,253.5C 403.5,252.833 403.5,252.167 403.5,251.5 Z"/></g>
<g><path style="opacity:0.192" fill="#c1b2da" d="M 405.5,254.5 C 407.587,255.585 408.92,257.251 409.5,259.5C 407.071,258.735 405.738,257.069 405.5,254.5 Z"/></g>
<g><path style="opacity:0.616" fill="#c0b6c6" d="M 409.5,259.5 C 410.5,259.833 411.167,260.5 411.5,261.5C 410.167,261.5 409.5,260.833 409.5,259.5 Z"/></g>
<g><path style="opacity:1" fill="#b674e6" d="M 220.5,257.5 C 230.747,260.981 241.08,264.314 251.5,267.5C 257.486,269.49 263.486,271.49 269.5,273.5C 267.708,274.309 265.708,274.809 263.5,275C 204.639,277.145 145.972,279.978 87.5,283.5C 86.8333,283.5 86.1667,283.5 85.5,283.5C 85.7406,281.102 85.0739,279.102 83.5,277.5C 83.9746,274.918 83.3079,272.918 81.5,271.5C 81.5,269.167 81.5,266.833 81.5,264.5C 83.5,264.5 85.5,264.5 87.5,264.5C 88.1667,268.5 88.8333,268.5 89.5,264.5C 91.2624,264.357 92.9291,264.691 94.5,265.5C 95.1667,264.833 95.8333,264.167 96.5,263.5C 97.8333,267.5 99.1667,267.5 100.5,263.5C 101.833,266.167 103.167,266.167 104.5,263.5C 105.833,266.167 107.167,266.167 108.5,263.5C 110.5,266.167 112.5,266.167 114.5,263.5C 115.167,264.167 115.833,264.833 116.5,265.5C 117.833,262.833 119.167,262.833 120.5,265.5C 123.018,263.536 125.684,262.87 128.5,263.5C 129.833,264.167 131.167,264.833 132.5,265.5C 133.833,262.833 135.167,262.833 136.5,265.5C 137.542,261.374 139.542,260.707 142.5,263.5C 142.489,262.559 142.989,261.892 144,261.5C 145.606,263.984 147.106,263.984 148.5,261.5C 149.833,264.167 151.167,264.167 152.5,261.5C 153.833,264.167 155.167,264.167 156.5,261.5C 160.5,264.167 164.5,264.167 168.5,261.5C 171.167,261.5 173.833,261.5 176.5,261.5C 177.833,262.167 179.167,262.833 180.5,263.5C 181.833,262.167 183.167,260.833 184.5,259.5C 185.833,262.167 187.167,262.167 188.5,259.5C 191.638,260.744 194.972,261.411 198.5,261.5C 202.287,261.34 205.954,260.674 209.5,259.5C 210.672,259.919 211.672,260.585 212.5,261.5C 213.328,260.585 214.328,259.919 215.5,259.5C 217.837,260.874 219.504,260.208 220.5,257.5 Z"/></g>
<g><path style="opacity:1" fill="#925bdb" d="M 363.5,265.5 C 364.978,265.238 366.311,265.571 367.5,266.5C 373.211,270.562 378.544,274.895 383.5,279.5C 383.762,280.978 383.429,282.311 382.5,283.5C 371.167,282.167 359.833,280.833 348.5,279.5C 347.833,280.167 347.167,280.833 346.5,281.5C 345.167,276.167 343.833,276.167 342.5,281.5C 341.167,278.833 339.833,278.833 338.5,281.5C 331.833,280.167 325.167,278.833 318.5,277.5C 313.833,280.167 309.167,280.167 304.5,277.5C 303.167,280.167 301.833,280.167 300.5,277.5C 299.167,280.167 297.833,280.167 296.5,277.5C 295.066,278.588 294.066,279.922 293.5,281.5C 290.994,280.25 288.327,279.584 285.5,279.5C 280.453,276.987 275.12,274.987 269.5,273.5C 263.486,271.49 257.486,269.49 251.5,267.5C 251.67,266.178 251.337,265.011 250.5,264C 257.373,264.077 264.04,263.243 270.5,261.5C 271.386,262.325 271.719,263.325 271.5,264.5C 280.738,264.526 290.071,264.692 299.5,265C 303.415,265.015 307.082,265.848 310.5,267.5C 312.793,266.295 315.293,265.628 318,265.5C 329.534,266.7 341.034,266.7 352.5,265.5C 354.5,268.167 356.5,268.167 358.5,265.5C 359.333,266.5 360.167,267.5 361,268.5C 361.236,266.881 362.069,265.881 363.5,265.5 Z"/></g>
<g><path style="opacity:0.886" fill="#b9a5d7" d="M 411.5,261.5 C 414.54,264.539 417.206,267.873 419.5,271.5C 415.326,269.331 412.66,265.998 411.5,261.5 Z"/></g>
<g><path style="opacity:0.541" fill="#c9c6cf" d="M 419.5,271.5 C 420.5,271.833 421.167,272.5 421.5,273.5C 420.167,273.5 419.5,272.833 419.5,271.5 Z"/></g>
<g><path style="opacity:0.2" fill="#e5d9e9" d="M 81.5,271.5 C 83.3079,272.918 83.9746,274.918 83.5,277.5C 82.2616,275.786 81.595,273.786 81.5,271.5 Z"/></g>
<g><path style="opacity:1" fill="#af6ee4" d="M 269.5,273.5 C 275.12,274.987 280.453,276.987 285.5,279.5C 283.136,281.74 280.803,281.74 278.5,279.5C 275.362,280.744 272.028,281.411 268.5,281.5C 255.662,282.094 242.829,282.761 230,283.5C 227.576,283.47 225.243,283.137 223,282.5C 212.608,283.997 202.108,284.83 191.5,285C 189.559,285.304 187.893,286.137 186.5,287.5C 185.167,284.833 183.833,284.833 182.5,287.5C 181.833,286.833 181.167,286.167 180.5,285.5C 178.942,290.694 177.942,290.694 177.5,285.5C 165.479,285.945 153.479,286.612 141.5,287.5C 140.328,287.081 139.328,286.415 138.5,285.5C 137.167,288.167 135.833,288.167 134.5,285.5C 132.038,286.716 129.371,287.382 126.5,287.5C 118.094,288.413 109.76,288.746 101.5,288.5C 101.719,289.675 101.386,290.675 100.5,291.5C 98.5875,288.524 96.2542,288.024 93.5,290C 93.8333,290.333 94.1667,290.667 94.5,291C 93.552,291.483 92.552,291.649 91.5,291.5C 90.8333,291.5 90.1667,291.5 89.5,291.5C 89.8432,289.517 89.1765,288.183 87.5,287.5C 87.5,286.167 87.5,284.833 87.5,283.5C 145.972,279.978 204.639,277.145 263.5,275C 265.708,274.809 267.708,274.309 269.5,273.5 Z"/></g>
<g><path style="opacity:0.322" fill="#eae4ee" d="M 421.5,273.5 C 423.262,274.262 424.262,275.596 424.5,277.5C 422.738,276.738 421.738,275.404 421.5,273.5 Z"/></g>
<g><path style="opacity:1" fill="#785ad1" d="M 427.5,283.5 C 428.167,283.5 428.833,283.5 429.5,283.5C 430.066,287.32 432.066,289.987 435.5,291.5C 435.427,293.027 436.094,294.027 437.5,294.5C 437.285,296.179 437.952,297.179 439.5,297.5C 439.157,299.483 439.824,300.817 441.5,301.5C 441.157,303.483 441.824,304.817 443.5,305.5C 443.157,307.483 443.824,308.817 445.5,309.5C 445.12,311.698 445.787,313.365 447.5,314.5C 447.054,317.01 447.72,319.01 449.5,320.5C 449.5,322.167 449.5,323.833 449.5,325.5C 449.762,326.978 449.429,328.311 448.5,329.5C 447.534,327.604 447.201,325.604 447.5,323.5C 441.351,325.696 435.851,324.696 431,320.5C 428.37,320.859 426.203,321.859 424.5,323.5C 421.827,316.807 418.16,310.807 413.5,305.5C 405.37,295.363 396.036,286.697 385.5,279.5C 385.389,278.883 385.056,278.383 384.5,278C 386.807,277.221 388.807,277.721 390.5,279.5C 391.167,278.833 391.833,278.167 392.5,277.5C 395.128,278.724 396.962,280.057 398,281.5C 398.95,280.978 399.784,280.311 400.5,279.5C 408.923,281.96 417.59,283.46 426.5,284C 425.304,284.654 425.304,285.154 426.5,285.5C 427.298,285.043 427.631,284.376 427.5,283.5 Z"/></g>
<g><path style="opacity:0.153" fill="#f3e7f4" d="M 83.5,277.5 C 85.0739,279.102 85.7406,281.102 85.5,283.5C 84.2616,281.786 83.595,279.786 83.5,277.5 Z"/></g>
<g><path style="opacity:0.18" fill="#d7cde6" d="M 424.5,277.5 C 426.89,278.891 428.557,280.891 429.5,283.5C 428.833,283.5 428.167,283.5 427.5,283.5C 426.096,281.745 425.096,279.745 424.5,277.5 Z"/></g>
<g><path style="opacity:0.424" fill="#dbd0e1" d="M 85.5,283.5 C 86.1667,283.5 86.8333,283.5 87.5,283.5C 87.5,284.833 87.5,286.167 87.5,287.5C 86.3263,286.486 85.6596,285.153 85.5,283.5 Z"/></g>
<g><path style="opacity:1" fill="#ab6ae4" d="M 285.5,279.5 C 288.327,279.584 290.994,280.25 293.5,281.5C 301.787,284.322 310.12,286.988 318.5,289.5C 314.105,292.715 309.438,292.715 304.5,289.5C 301.763,291.102 298.763,291.936 295.5,292C 271.5,293 247.5,294 223.5,295C 218.275,294.959 213.275,295.792 208.5,297.5C 207.051,296.383 205.384,295.716 203.5,295.5C 196.465,296.928 189.465,297.261 182.5,296.5C 174.291,296.591 166.291,297.591 158.5,299.5C 157.167,296.833 155.833,296.833 154.5,299.5C 153.833,298.833 153.167,298.167 152.5,297.5C 141.976,298.105 131.476,299.105 121,300.5C 116.613,300.185 112.447,299.185 108.5,297.5C 106.868,300.193 104.701,301.193 102,300.5C 101.333,303.167 100.667,303.167 100,300.5C 98.7913,300.653 97.6246,300.986 96.5,301.5C 95.7777,300.449 94.7777,299.782 93.5,299.5C 93.8432,297.517 93.1765,296.183 91.5,295.5C 91.5,294.167 91.5,292.833 91.5,291.5C 92.552,291.649 93.552,291.483 94.5,291C 94.1667,290.667 93.8333,290.333 93.5,290C 96.2542,288.024 98.5875,288.524 100.5,291.5C 101.386,290.675 101.719,289.675 101.5,288.5C 109.76,288.746 118.094,288.413 126.5,287.5C 129.371,287.382 132.038,286.716 134.5,285.5C 135.833,288.167 137.167,288.167 138.5,285.5C 139.328,286.415 140.328,287.081 141.5,287.5C 153.479,286.612 165.479,285.945 177.5,285.5C 177.942,290.694 178.942,290.694 180.5,285.5C 181.167,286.167 181.833,286.833 182.5,287.5C 183.833,284.833 185.167,284.833 186.5,287.5C 187.893,286.137 189.559,285.304 191.5,285C 202.108,284.83 212.608,283.997 223,282.5C 225.243,283.137 227.576,283.47 230,283.5C 242.829,282.761 255.662,282.094 268.5,281.5C 272.028,281.411 275.362,280.744 278.5,279.5C 280.803,281.74 283.136,281.74 285.5,279.5 Z"/></g>
<g><path style="opacity:0.447" fill="#bfacd8" d="M 429.5,283.5 C 431.984,285.8 433.984,288.467 435.5,291.5C 432.066,289.987 430.066,287.32 429.5,283.5 Z"/></g>
<g><path style="opacity:0.247" fill="#e3d8e8" d="M 87.5,287.5 C 89.1765,288.183 89.8432,289.517 89.5,291.5C 87.8958,290.713 87.2291,289.38 87.5,287.5 Z"/></g>
<g><path style="opacity:1" fill="#a565e2" d="M 318.5,289.5 C 330.23,293.395 341.897,297.395 353.5,301.5C 349.566,301.979 345.899,301.312 342.5,299.5C 341.5,301.167 340.167,302.5 338.5,303.5C 337.808,302.975 337.308,302.308 337,301.5C 336.311,302.357 335.478,303.023 334.5,303.5C 329.833,302.167 325.167,302.167 320.5,303.5C 319.167,300.833 317.833,300.833 316.5,303.5C 315.004,299.665 314.004,299.665 313.5,303.5C 306.825,303.334 300.158,303.5 293.5,304C 292.354,304.645 291.354,305.478 290.5,306.5C 289.833,305.833 289.167,305.167 288.5,304.5C 287.167,305.833 285.833,305.833 284.5,304.5C 283.833,305.167 283.167,305.833 282.5,306.5C 281.672,305.585 280.672,304.919 279.5,304.5C 277.777,305.552 276.11,305.552 274.5,304.5C 271.59,304.914 268.923,305.914 266.5,307.5C 263.362,306.256 260.028,305.589 256.5,305.5C 252.972,305.589 249.638,306.256 246.5,307.5C 239.271,306.729 231.938,306.729 224.5,307.5C 223.167,303.5 221.833,303.5 220.5,307.5C 219.004,303.665 218.004,303.665 217.5,307.5C 211.01,307.02 204.677,307.687 198.5,309.5C 191.715,309.734 185.048,309.4 178.5,308.5C 176.884,309.115 175.551,310.115 174.5,311.5C 172.878,310.067 171.545,308.401 170.5,306.5C 169.614,307.325 169.281,308.325 169.5,309.5C 163.027,309.081 156.694,309.747 150.5,311.5C 142.911,310.961 135.244,310.961 127.5,311.5C 126.833,307.5 126.167,307.5 125.5,311.5C 120.352,310.926 115.518,311.593 111,313.5C 110.29,312.027 109.124,311.36 107.5,311.5C 107.5,312.833 107.5,314.167 107.5,315.5C 105.513,312.18 102.847,309.513 99.5,307.5C 99.5449,304.923 98.5449,302.923 96.5,301.5C 97.6246,300.986 98.7913,300.653 100,300.5C 100.667,303.167 101.333,303.167 102,300.5C 104.701,301.193 106.868,300.193 108.5,297.5C 112.447,299.185 116.613,300.185 121,300.5C 131.476,299.105 141.976,298.105 152.5,297.5C 153.167,298.167 153.833,298.833 154.5,299.5C 155.833,296.833 157.167,296.833 158.5,299.5C 166.291,297.591 174.291,296.591 182.5,296.5C 189.465,297.261 196.465,296.928 203.5,295.5C 205.384,295.716 207.051,296.383 208.5,297.5C 213.275,295.792 218.275,294.959 223.5,295C 247.5,294 271.5,293 295.5,292C 298.763,291.936 301.763,291.102 304.5,289.5C 309.438,292.715 314.105,292.715 318.5,289.5 Z"/></g>
<g><path style="opacity:1" fill="#895bd8" d="M 383.5,279.5 C 384.167,279.5 384.833,279.5 385.5,279.5C 396.036,286.697 405.37,295.363 413.5,305.5C 413.414,306.496 413.748,307.329 414.5,308C 413.128,308.402 411.795,308.902 410.5,309.5C 398.241,308.09 385.575,307.09 372.5,306.5C 371.614,307.325 371.281,308.325 371.5,309.5C 365.758,306.296 359.758,303.63 353.5,301.5C 341.897,297.395 330.23,293.395 318.5,289.5C 310.12,286.988 301.787,284.322 293.5,281.5C 294.066,279.922 295.066,278.588 296.5,277.5C 297.833,280.167 299.167,280.167 300.5,277.5C 301.833,280.167 303.167,280.167 304.5,277.5C 309.167,280.167 313.833,280.167 318.5,277.5C 325.167,278.833 331.833,280.167 338.5,281.5C 339.833,278.833 341.167,278.833 342.5,281.5C 343.833,276.167 345.167,276.167 346.5,281.5C 347.167,280.833 347.833,280.167 348.5,279.5C 359.833,280.833 371.167,282.167 382.5,283.5C 383.429,282.311 383.762,280.978 383.5,279.5 Z"/></g>
<g><path style="opacity:0.557" fill="#d4bfde" d="M 89.5,291.5 C 90.1667,291.5 90.8333,291.5 91.5,291.5C 91.5,292.833 91.5,294.167 91.5,295.5C 90.3263,294.486 89.6596,293.153 89.5,291.5 Z"/></g>
<g><path style="opacity:0.318" fill="#e2dde6" d="M 435.5,291.5 C 436.906,291.973 437.573,292.973 437.5,294.5C 436.094,294.027 435.427,293.027 435.5,291.5 Z"/></g>
<g><path style="opacity:0.376" fill="#d9cbe2" d="M 91.5,295.5 C 93.1765,296.183 93.8432,297.517 93.5,299.5C 92.3263,298.486 91.6596,297.153 91.5,295.5 Z"/></g>
<g><path style="opacity:0.102" fill="#eae3ee" d="M 437.5,294.5 C 438.906,294.973 439.573,295.973 439.5,297.5C 437.952,297.179 437.285,296.179 437.5,294.5 Z"/></g>
<g><path style="opacity:0.831" fill="#bab0cc" d="M 439.5,297.5 C 440.674,298.514 441.34,299.847 441.5,301.5C 439.824,300.817 439.157,299.483 439.5,297.5 Z"/></g>
<g><path style="opacity:0.004" fill="#d6c0e2" d="M 93.5,299.5 C 94.7777,299.782 95.7777,300.449 96.5,301.5C 98.5449,302.923 99.5449,304.923 99.5,307.5C 97.1468,305.14 95.1468,302.473 93.5,299.5 Z"/></g>
<g><path style="opacity:1" fill="#9f61e1" d="M 353.5,301.5 C 359.758,303.63 365.758,306.296 371.5,309.5C 368.434,310.023 365.434,311.023 362.5,312.5C 361.167,309.833 359.833,309.833 358.5,312.5C 357.833,311.833 357.167,311.167 356.5,310.5C 343.81,311.168 331.143,312.168 318.5,313.5C 316.837,312.125 315.503,312.458 314.5,314.5C 313.167,311.833 311.833,311.833 310.5,314.5C 309.833,313.833 309.167,313.167 308.5,312.5C 307.667,313.5 306.833,314.5 306,315.5C 303.589,312.895 301.089,312.895 298.5,315.5C 295.833,312.833 293.167,312.833 290.5,315.5C 289.167,312.833 287.833,312.833 286.5,315.5C 284.717,313.321 282.717,313.321 280.5,315.5C 278.208,313.976 276.208,314.309 274.5,316.5C 273.167,313.833 271.833,313.833 270.5,316.5C 269.167,313.833 267.833,313.833 266.5,316.5C 265.167,313.833 263.833,313.833 262.5,316.5C 260.974,314.342 259.474,314.675 258,317.5C 256.983,314.972 255.816,314.972 254.5,317.5C 253.167,314.833 251.833,314.833 250.5,317.5C 249.167,314.833 247.833,314.833 246.5,317.5C 245.167,314.833 243.833,314.833 242.5,317.5C 239.851,314.961 237.184,314.961 234.5,317.5C 230.295,315.879 226.295,316.212 222.5,318.5C 221.167,315.833 219.833,315.833 218.5,318.5C 217.167,315.833 215.833,315.833 214.5,318.5C 213.001,316.198 211.668,316.531 210.5,319.5C 207.362,318.256 204.028,317.589 200.5,317.5C 191.781,317.836 183.114,318.503 174.5,319.5C 172.837,318.125 171.503,318.458 170.5,320.5C 169.167,317.833 167.833,317.833 166.5,320.5C 163.58,318.92 160.914,319.253 158.5,321.5C 157.167,318.833 155.833,318.833 154.5,321.5C 153.167,318.833 151.833,318.833 150.5,321.5C 149.167,318.833 147.833,318.833 146.5,321.5C 142.638,318.595 138.638,318.928 134.5,322.5C 133.167,319.833 131.833,319.833 130.5,322.5C 129.167,319.833 127.833,319.833 126.5,322.5C 125.167,319.833 123.833,319.833 122.5,322.5C 121.808,321.975 121.308,321.308 121,320.5C 119.806,322.525 118.306,322.859 116.5,321.5C 115.702,321.957 115.369,322.624 115.5,323.5C 115.167,323.5 114.833,323.5 114.5,323.5C 112.81,323.144 111.81,322.144 111.5,320.5C 111.262,317.931 109.929,316.265 107.5,315.5C 107.5,314.167 107.5,312.833 107.5,311.5C 109.124,311.36 110.29,312.027 111,313.5C 115.518,311.593 120.352,310.926 125.5,311.5C 126.167,307.5 126.833,307.5 127.5,311.5C 135.244,310.961 142.911,310.961 150.5,311.5C 156.694,309.747 163.027,309.081 169.5,309.5C 169.281,308.325 169.614,307.325 170.5,306.5C 171.545,308.401 172.878,310.067 174.5,311.5C 175.551,310.115 176.884,309.115 178.5,308.5C 185.048,309.4 191.715,309.734 198.5,309.5C 204.677,307.687 211.01,307.02 217.5,307.5C 218.004,303.665 219.004,303.665 220.5,307.5C 221.833,303.5 223.167,303.5 224.5,307.5C 231.938,306.729 239.271,306.729 246.5,307.5C 249.638,306.256 252.972,305.589 256.5,305.5C 260.028,305.589 263.362,306.256 266.5,307.5C 268.923,305.914 271.59,304.914 274.5,304.5C 276.11,305.552 277.777,305.552 279.5,304.5C 280.672,304.919 281.672,305.585 282.5,306.5C 283.167,305.833 283.833,305.167 284.5,304.5C 285.833,305.833 287.167,305.833 288.5,304.5C 289.167,305.167 289.833,305.833 290.5,306.5C 291.354,305.478 292.354,304.645 293.5,304C 300.158,303.5 306.825,303.334 313.5,303.5C 314.004,299.665 315.004,299.665 316.5,303.5C 317.833,300.833 319.167,300.833 320.5,303.5C 325.167,302.167 329.833,302.167 334.5,303.5C 335.478,303.023 336.311,302.357 337,301.5C 337.308,302.308 337.808,302.975 338.5,303.5C 340.167,302.5 341.5,301.167 342.5,299.5C 345.899,301.312 349.566,301.979 353.5,301.5 Z"/></g>
<g><path style="opacity:0.878" fill="#b1a3c7" d="M 441.5,301.5 C 442.674,302.514 443.34,303.847 443.5,305.5C 441.824,304.817 441.157,303.483 441.5,301.5 Z"/></g>
<g><path style="opacity:1" fill="#805ad4" d="M 413.5,305.5 C 418.16,310.807 421.827,316.807 424.5,323.5C 428.301,328.801 429.968,334.801 429.5,341.5C 426.212,341.927 423.212,341.26 420.5,339.5C 419.167,347.5 417.833,347.5 416.5,339.5C 415.167,342.167 413.833,342.167 412.5,339.5C 410.533,340.953 408.367,341.953 406,342.5C 407.547,347.613 409.714,352.613 412.5,357.5C 414.482,363.431 416.149,369.431 417.5,375.5C 412.819,375.669 408.152,376.002 403.5,376.5C 403.5,377.5 403.5,378.5 403.5,379.5C 399.5,374.833 395.5,370.167 391.5,365.5C 387.5,357.5 381.5,351.5 373.5,347.5C 373.279,346.265 372.612,345.265 371.5,344.5C 367.757,341.962 363.757,339.962 359.5,338.5C 358.035,337.263 356.368,336.263 354.5,335.5C 355.009,331.884 356.343,331.217 358.5,333.5C 359.731,332.349 359.731,331.183 358.5,330C 359.448,329.517 360.448,329.351 361.5,329.5C 361.286,333.257 362.286,333.924 364.5,331.5C 365.833,334.167 367.167,334.167 368.5,331.5C 369.833,334.167 371.167,334.167 372.5,331.5C 373.167,332.167 373.833,332.833 374.5,333.5C 376.285,332.337 378.285,331.67 380.5,331.5C 385.339,331.784 390.172,332.118 395,332.5C 395.749,331.365 395.583,330.365 394.5,329.5C 387.681,321.668 380.014,315.002 371.5,309.5C 371.281,308.325 371.614,307.325 372.5,306.5C 385.575,307.09 398.241,308.09 410.5,309.5C 411.795,308.902 413.128,308.402 414.5,308C 413.748,307.329 413.414,306.496 413.5,305.5 Z"/></g>
<g><path style="opacity:0.671" fill="#ceb2df" d="M 99.5,307.5 C 102.847,309.513 105.513,312.18 107.5,315.5C 109.929,316.265 111.262,317.931 111.5,320.5C 106.365,317.241 102.365,312.908 99.5,307.5 Z"/></g>
<g><path style="opacity:0.859" fill="#b5adc5" d="M 443.5,305.5 C 444.674,306.514 445.34,307.847 445.5,309.5C 443.824,308.817 443.157,307.483 443.5,305.5 Z"/></g>
<g><path style="opacity:0.686" fill="#d2cbda" d="M 445.5,309.5 C 446.931,310.78 447.598,312.447 447.5,314.5C 445.787,313.365 445.12,311.698 445.5,309.5 Z"/></g>
<g><path style="opacity:1" fill="#985dde" d="M 371.5,309.5 C 380.014,315.002 387.681,321.668 394.5,329.5C 395.583,330.365 395.749,331.365 395,332.5C 390.172,332.118 385.339,331.784 380.5,331.5C 378.285,331.67 376.285,332.337 374.5,333.5C 373.833,332.833 373.167,332.167 372.5,331.5C 371.167,334.167 369.833,334.167 368.5,331.5C 367.167,334.167 365.833,334.167 364.5,331.5C 362.286,333.924 361.286,333.257 361.5,329.5C 360.448,329.351 359.448,329.517 358.5,330C 359.731,331.183 359.731,332.349 358.5,333.5C 356.343,331.217 355.009,331.884 354.5,335.5C 350.838,334.168 347.172,332.835 343.5,331.5C 335.117,328.602 326.45,327.102 317.5,327C 251.174,325.678 184.841,325.178 118.5,325.5C 118.167,325.5 117.833,325.5 117.5,325.5C 117.5,324.167 116.833,323.5 115.5,323.5C 115.369,322.624 115.702,321.957 116.5,321.5C 118.306,322.859 119.806,322.525 121,320.5C 121.308,321.308 121.808,321.975 122.5,322.5C 123.833,319.833 125.167,319.833 126.5,322.5C 127.833,319.833 129.167,319.833 130.5,322.5C 131.833,319.833 133.167,319.833 134.5,322.5C 138.638,318.928 142.638,318.595 146.5,321.5C 147.833,318.833 149.167,318.833 150.5,321.5C 151.833,318.833 153.167,318.833 154.5,321.5C 155.833,318.833 157.167,318.833 158.5,321.5C 160.914,319.253 163.58,318.92 166.5,320.5C 167.833,317.833 169.167,317.833 170.5,320.5C 171.503,318.458 172.837,318.125 174.5,319.5C 183.114,318.503 191.781,317.836 200.5,317.5C 204.028,317.589 207.362,318.256 210.5,319.5C 211.668,316.531 213.001,316.198 214.5,318.5C 215.833,315.833 217.167,315.833 218.5,318.5C 219.833,315.833 221.167,315.833 222.5,318.5C 226.295,316.212 230.295,315.879 234.5,317.5C 237.184,314.961 239.851,314.961 242.5,317.5C 243.833,314.833 245.167,314.833 246.5,317.5C 247.833,314.833 249.167,314.833 250.5,317.5C 251.833,314.833 253.167,314.833 254.5,317.5C 255.816,314.972 256.983,314.972 258,317.5C 259.474,314.675 260.974,314.342 262.5,316.5C 263.833,313.833 265.167,313.833 266.5,316.5C 267.833,313.833 269.167,313.833 270.5,316.5C 271.833,313.833 273.167,313.833 274.5,316.5C 276.208,314.309 278.208,313.976 280.5,315.5C 282.717,313.321 284.717,313.321 286.5,315.5C 287.833,312.833 289.167,312.833 290.5,315.5C 293.167,312.833 295.833,312.833 298.5,315.5C 301.089,312.895 303.589,312.895 306,315.5C 306.833,314.5 307.667,313.5 308.5,312.5C 309.167,313.167 309.833,313.833 310.5,314.5C 311.833,311.833 313.167,311.833 314.5,314.5C 315.503,312.458 316.837,312.125 318.5,313.5C 331.143,312.168 343.81,311.168 356.5,310.5C 357.167,311.167 357.833,311.833 358.5,312.5C 359.833,309.833 361.167,309.833 362.5,312.5C 365.434,311.023 368.434,310.023 371.5,309.5 Z"/></g>
<g><path style="opacity:0.718" fill="#c4bfd0" d="M 447.5,314.5 C 448.738,316.214 449.405,318.214 449.5,320.5C 447.72,319.01 447.054,317.01 447.5,314.5 Z"/></g>
<g><path style="opacity:0.013" fill="#fffeff" d="M 114.5,323.5 C 114.833,323.5 115.167,323.5 115.5,323.5C 115.611,324.117 115.944,324.617 116.5,325C 88.8353,325.5 61.1687,325.667 33.5,325.5C 60.5,324.833 87.5,324.167 114.5,323.5 Z"/></g>
<g><path style="opacity:0.463" fill="#ddd8e4" d="M 449.5,320.5 C 450.612,322.599 451.279,324.933 451.5,327.5C 450.833,326.833 450.167,326.167 449.5,325.5C 449.5,323.833 449.5,322.167 449.5,320.5 Z"/></g>
<g><path style="opacity:0.963" fill="#d9a4eb" d="M 115.5,323.5 C 116.833,323.5 117.5,324.167 117.5,325.5C 112.604,327.446 107.271,328.113 101.5,327.5C 78.8333,327.5 56.1667,327.5 33.5,327.5C 33.5,331.5 33.5,335.5 33.5,339.5C 32.1667,334.833 32.1667,330.167 33.5,325.5C 61.1687,325.667 88.8353,325.5 116.5,325C 115.944,324.617 115.611,324.117 115.5,323.5 Z"/></g>
<g><path style="opacity:0.998" fill="#d58eed" d="M 101.5,327.5 C 100.818,331.517 98.6511,334.517 95,336.5C 94.6667,336.167 94.3333,335.833 94,335.5C 91.4493,337.53 88.6159,339.197 85.5,340.5C 81.2893,342.721 78.1226,345.388 76,348.5C 75.586,348.043 75.086,347.709 74.5,347.5C 70.3017,350.53 65.9684,353.363 61.5,356C 61.8333,356.333 62.1667,356.667 62.5,357C 56.9528,358.44 51.9528,360.94 47.5,364.5C 45.7389,365.917 44.4056,367.583 43.5,369.5C 42.4548,367.23 41.1214,365.23 39.5,363.5C 39.9746,360.918 39.3079,358.918 37.5,357.5C 37.9746,354.918 37.3079,352.918 35.5,351.5C 35.5,351.167 35.5,350.833 35.5,350.5C 35.6646,347.482 35.498,344.482 35,341.5C 34.7216,340.584 34.2216,339.918 33.5,339.5C 33.5,335.5 33.5,331.5 33.5,327.5C 56.1667,327.5 78.8333,327.5 101.5,327.5 Z"/></g>
<g><path style="opacity:1" fill="#d08aed" d="M 117.5,325.5 C 117.833,325.5 118.167,325.5 118.5,325.5C 118.5,326.167 118.833,326.5 119.5,326.5C 123.97,327.486 128.637,327.819 133.5,327.5C 132.337,329.982 130.337,331.316 127.5,331.5C 127.895,334.523 126.895,335.523 124.5,334.5C 98.0754,350.993 73.4088,366.493 50.5,381C 51.2524,381.671 51.5858,382.504 51.5,383.5C 50.8333,383.5 50.1667,383.5 49.5,383.5C 49.413,380.422 48.0797,378.089 45.5,376.5C 45.7148,374.821 45.0481,373.821 43.5,373.5C 43.5,373.167 43.5,372.833 43.5,372.5C 43.5,371.5 43.5,370.5 43.5,369.5C 44.4056,367.583 45.7389,365.917 47.5,364.5C 51.9528,360.94 56.9528,358.44 62.5,357C 62.1667,356.667 61.8333,356.333 61.5,356C 65.9684,353.363 70.3017,350.53 74.5,347.5C 75.086,347.709 75.586,348.043 76,348.5C 78.1226,345.388 81.2893,342.721 85.5,340.5C 88.6159,339.197 91.4493,337.53 94,335.5C 94.3333,335.833 94.6667,336.167 95,336.5C 98.6511,334.517 100.818,331.517 101.5,327.5C 107.271,328.113 112.604,327.446 117.5,325.5 Z"/></g>
<g><path style="opacity:1" fill="#cb85eb" d="M 133.5,327.5 C 146.833,327.5 160.167,327.5 173.5,327.5C 173.5,328.833 173.5,330.167 173.5,331.5C 170.856,331.16 168.523,331.827 166.5,333.5C 164.991,331.085 163.324,330.919 161.5,333C 162.308,333.308 162.975,333.808 163.5,334.5C 159.14,337.69 154.64,340.69 150,343.5C 148.989,343.108 148.489,342.441 148.5,341.5C 145.352,342.14 145.019,343.14 147.5,344.5C 145.343,346.412 143.009,348.079 140.5,349.5C 139.14,347.152 137.473,346.985 135.5,349C 132.966,350.849 130.3,352.515 127.5,354C 126.408,357.974 123.741,361.141 119.5,363.5C 117.513,361.393 115.513,361.226 113.5,363C 114.672,363.419 115.672,364.085 116.5,365C 112.069,367.215 107.736,369.382 103.5,371.5C 102.833,376.833 102.167,376.833 101.5,371.5C 97.8175,371.852 95.4842,373.852 94.5,377.5C 92.1911,379.987 89.5244,381.987 86.5,383.5C 85.1397,381.152 83.4731,380.985 81.5,383C 82.8333,383.667 84.1667,384.333 85.5,385C 79.8878,386.805 74.8878,389.638 70.5,393.5C 68.9911,391.085 67.3245,390.919 65.5,393C 66.3081,393.308 66.9747,393.808 67.5,394.5C 66.1482,395.524 64.8149,396.524 63.5,397.5C 61.5,396.167 59.5,394.833 57.5,393.5C 56.5,393.167 55.8333,392.5 55.5,391.5C 55.573,389.973 54.9063,388.973 53.5,388.5C 53.1692,386.678 52.5025,385.011 51.5,383.5C 51.5858,382.504 51.2524,381.671 50.5,381C 73.4088,366.493 98.0754,350.993 124.5,334.5C 126.895,335.523 127.895,334.523 127.5,331.5C 130.337,331.316 132.337,329.982 133.5,327.5 Z"/></g>
<g><path style="opacity:1" fill="#c47fe9" d="M 119.5,326.5 C 141.5,326.5 163.5,326.5 185.5,326.5C 192.648,327.492 199.981,327.825 207.5,327.5C 204.312,330.466 200.979,333.466 197.5,336.5C 194.339,337.913 191.339,339.58 188.5,341.5C 187.833,341.167 187.167,340.833 186.5,340.5C 185.025,344.058 182.359,345.891 178.5,346C 179.696,346.654 179.696,347.154 178.5,347.5C 177.833,347.167 177.167,346.833 176.5,346.5C 175.646,347.948 174.646,349.281 173.5,350.5C 169.833,352.833 166.167,355.167 162.5,357.5C 161.522,357.023 160.689,356.357 160,355.5C 159.122,358.215 157.622,360.549 155.5,362.5C 152.339,363.913 149.339,365.58 146.5,367.5C 145.833,367.167 145.167,366.833 144.5,366.5C 143.455,368.401 142.122,370.067 140.5,371.5C 139.914,371.291 139.414,370.957 139,370.5C 136.379,374.549 132.879,376.549 128.5,376.5C 127.646,377.948 126.646,379.281 125.5,380.5C 122.155,383.021 118.488,384.854 114.5,386C 114.833,386.333 115.167,386.667 115.5,387C 114.451,387.492 113.451,387.326 112.5,386.5C 110.103,390.565 106.77,393.565 102.5,395.5C 101.808,394.975 101.308,394.308 101,393.5C 100.077,394.759 99.2432,396.092 98.5,397.5C 97.5224,397.023 96.6891,396.357 96,395.5C 95.7811,396.938 95.2811,398.271 94.5,399.5C 91.4756,401.013 88.8089,403.013 86.5,405.5C 85.5713,406.689 85.238,408.022 85.5,409.5C 84.1667,409.5 82.8333,409.5 81.5,409.5C 81.5,410.5 81.5,411.5 81.5,412.5C 80.1667,412.167 78.8333,411.833 77.5,411.5C 75.3309,407.326 71.9975,404.66 67.5,403.5C 66.1667,401.5 64.8333,399.5 63.5,397.5C 64.8149,396.524 66.1482,395.524 67.5,394.5C 66.9747,393.808 66.3081,393.308 65.5,393C 67.3245,390.919 68.9911,391.085 70.5,393.5C 74.8878,389.638 79.8878,386.805 85.5,385C 84.1667,384.333 82.8333,383.667 81.5,383C 83.4731,380.985 85.1397,381.152 86.5,383.5C 89.5244,381.987 92.1911,379.987 94.5,377.5C 95.4842,373.852 97.8175,371.852 101.5,371.5C 102.167,376.833 102.833,376.833 103.5,371.5C 107.736,369.382 112.069,367.215 116.5,365C 115.672,364.085 114.672,363.419 113.5,363C 115.513,361.226 117.513,361.393 119.5,363.5C 123.741,361.141 126.408,357.974 127.5,354C 130.3,352.515 132.966,350.849 135.5,349C 137.473,346.985 139.14,347.152 140.5,349.5C 143.009,348.079 145.343,346.412 147.5,344.5C 145.019,343.14 145.352,342.14 148.5,341.5C 148.489,342.441 148.989,343.108 150,343.5C 154.64,340.69 159.14,337.69 163.5,334.5C 162.975,333.808 162.308,333.308 161.5,333C 163.324,330.919 164.991,331.085 166.5,333.5C 168.523,331.827 170.856,331.16 173.5,331.5C 173.5,330.167 173.5,328.833 173.5,327.5C 160.167,327.5 146.833,327.5 133.5,327.5C 128.637,327.819 123.97,327.486 119.5,326.5 Z"/></g>
<g><path style="opacity:1" fill="#be7ae8" d="M 207.5,327.5 C 220.184,327.168 232.851,327.501 245.5,328.5C 242.007,329.442 238.674,330.775 235.5,332.5C 234.248,334.001 233.248,335.668 232.5,337.5C 231.833,336.833 231.167,336.167 230.5,335.5C 229.72,338.068 228.22,340.068 226,341.5C 224.989,341.108 224.489,340.441 224.5,339.5C 223.088,340.806 221.421,341.64 219.5,342C 219.833,342.333 220.167,342.667 220.5,343C 219.552,343.483 218.552,343.649 217.5,343.5C 217.714,347.257 216.714,347.924 214.5,345.5C 213.571,346.689 213.238,348.022 213.5,349.5C 207.378,349.389 203.045,352.055 200.5,357.5C 199.167,354.833 197.833,354.833 196.5,357.5C 195.833,357.167 195.167,356.833 194.5,356.5C 192.648,359.76 189.981,362.093 186.5,363.5C 185.833,364.833 185.167,366.167 184.5,367.5C 183.833,366.833 183.167,366.167 182.5,365.5C 179.341,368.582 175.675,370.916 171.5,372.5C 170.248,374.001 169.248,375.668 168.5,377.5C 166.286,375.076 165.286,375.743 165.5,379.5C 162.927,379.148 160.594,379.648 158.5,381C 159.624,381.249 160.624,381.749 161.5,382.5C 160.833,382.833 160.167,383.167 159.5,383.5C 154.925,380.369 152.592,381.703 152.5,387.5C 150.286,385.076 149.286,385.743 149.5,389.5C 147.396,389.201 145.396,389.534 143.5,390.5C 144.167,391.167 144.833,391.833 145.5,392.5C 143.668,393.248 142.001,394.248 140.5,395.5C 139.833,394.833 139.167,394.167 138.5,393.5C 137.833,394.833 137.167,396.167 136.5,397.5C 135.833,396.833 135.167,396.167 134.5,395.5C 133.663,397.844 132.329,399.844 130.5,401.5C 129.065,399.599 127.398,399.266 125.5,400.5C 123.097,402.305 121.43,404.638 120.5,407.5C 118.286,405.076 117.286,405.743 117.5,409.5C 113.129,409.907 109.129,411.24 105.5,413.5C 105.719,417.527 104.552,418.194 102,415.5C 101.51,416.793 101.343,418.127 101.5,419.5C 100.167,419.5 98.8333,419.5 97.5,419.5C 94.2655,418.424 90.9322,417.757 87.5,417.5C 86.8166,415.824 85.4832,415.157 83.5,415.5C 83.2178,414.222 82.5511,413.222 81.5,412.5C 81.5,411.5 81.5,410.5 81.5,409.5C 82.8333,409.5 84.1667,409.5 85.5,409.5C 85.238,408.022 85.5713,406.689 86.5,405.5C 88.8089,403.013 91.4756,401.013 94.5,399.5C 95.2811,398.271 95.7811,396.938 96,395.5C 96.6891,396.357 97.5224,397.023 98.5,397.5C 99.2432,396.092 100.077,394.759 101,393.5C 101.308,394.308 101.808,394.975 102.5,395.5C 106.77,393.565 110.103,390.565 112.5,386.5C 113.451,387.326 114.451,387.492 115.5,387C 115.167,386.667 114.833,386.333 114.5,386C 118.488,384.854 122.155,383.021 125.5,380.5C 126.646,379.281 127.646,377.948 128.5,376.5C 132.879,376.549 136.379,374.549 139,370.5C 139.414,370.957 139.914,371.291 140.5,371.5C 142.122,370.067 143.455,368.401 144.5,366.5C 145.167,366.833 145.833,367.167 146.5,367.5C 149.339,365.58 152.339,363.913 155.5,362.5C 157.622,360.549 159.122,358.215 160,355.5C 160.689,356.357 161.522,357.023 162.5,357.5C 166.167,355.167 169.833,352.833 173.5,350.5C 174.646,349.281 175.646,347.948 176.5,346.5C 177.167,346.833 177.833,347.167 178.5,347.5C 179.696,347.154 179.696,346.654 178.5,346C 182.359,345.891 185.025,344.058 186.5,340.5C 187.167,340.833 187.833,341.167 188.5,341.5C 191.339,339.58 194.339,337.913 197.5,336.5C 200.979,333.466 204.312,330.466 207.5,327.5 Z"/></g>
<g><path style="opacity:1" fill="#b875e7" d="M 185.5,326.5 C 217.506,326.414 249.506,326.748 281.5,327.5C 232.401,359.081 181.401,391.081 128.5,423.5C 127.5,424.5 126.5,425.5 125.5,426.5C 136.146,427.499 146.813,427.832 157.5,427.5C 177.669,427.883 197.669,428.55 217.5,429.5C 191.5,429.5 165.5,429.5 139.5,429.5C 135.167,429.5 130.833,429.5 126.5,429.5C 123.155,427.783 119.489,427.116 115.5,427.5C 113.365,425.631 110.698,424.964 107.5,425.5C 104.444,423.644 101.11,422.311 97.5,421.5C 97.5,420.833 97.5,420.167 97.5,419.5C 98.8333,419.5 100.167,419.5 101.5,419.5C 101.343,418.127 101.51,416.793 102,415.5C 104.552,418.194 105.719,417.527 105.5,413.5C 109.129,411.24 113.129,409.907 117.5,409.5C 117.286,405.743 118.286,405.076 120.5,407.5C 121.43,404.638 123.097,402.305 125.5,400.5C 127.398,399.266 129.065,399.599 130.5,401.5C 132.329,399.844 133.663,397.844 134.5,395.5C 135.167,396.167 135.833,396.833 136.5,397.5C 137.167,396.167 137.833,394.833 138.5,393.5C 139.167,394.167 139.833,394.833 140.5,395.5C 142.001,394.248 143.668,393.248 145.5,392.5C 144.833,391.833 144.167,391.167 143.5,390.5C 145.396,389.534 147.396,389.201 149.5,389.5C 149.286,385.743 150.286,385.076 152.5,387.5C 152.592,381.703 154.925,380.369 159.5,383.5C 160.167,383.167 160.833,382.833 161.5,382.5C 160.624,381.749 159.624,381.249 158.5,381C 160.594,379.648 162.927,379.148 165.5,379.5C 165.286,375.743 166.286,375.076 168.5,377.5C 169.248,375.668 170.248,374.001 171.5,372.5C 175.675,370.916 179.341,368.582 182.5,365.5C 183.167,366.167 183.833,366.833 184.5,367.5C 185.167,366.167 185.833,364.833 186.5,363.5C 189.981,362.093 192.648,359.76 194.5,356.5C 195.167,356.833 195.833,357.167 196.5,357.5C 197.833,354.833 199.167,354.833 200.5,357.5C 203.045,352.055 207.378,349.389 213.5,349.5C 213.238,348.022 213.571,346.689 214.5,345.5C 216.714,347.924 217.714,347.257 217.5,343.5C 218.552,343.649 219.552,343.483 220.5,343C 220.167,342.667 219.833,342.333 219.5,342C 221.421,341.64 223.088,340.806 224.5,339.5C 224.489,340.441 224.989,341.108 226,341.5C 228.22,340.068 229.72,338.068 230.5,335.5C 231.167,336.167 231.833,336.833 232.5,337.5C 233.248,335.668 234.248,334.001 235.5,332.5C 238.674,330.775 242.007,329.442 245.5,328.5C 232.851,327.501 220.184,327.168 207.5,327.5C 199.981,327.825 192.648,327.492 185.5,326.5 Z"/></g>
<g><path style="opacity:1" fill="#b16fe5" d="M 281.5,327.5 C 291.522,327.168 301.522,327.501 311.5,328.5C 311.709,329.086 312.043,329.586 312.5,330C 286.1,346.488 260.1,362.821 234.5,379C 232.866,379.494 231.199,379.66 229.5,379.5C 229.343,381.818 228.176,383.484 226,384.5C 202.046,398.856 179.213,413.189 157.5,427.5C 146.813,427.832 136.146,427.499 125.5,426.5C 126.5,425.5 127.5,424.5 128.5,423.5C 181.401,391.081 232.401,359.081 281.5,327.5 Z"/></g>
<g><path style="opacity:1" fill="#aa6ae3" d="M 118.5,325.5 C 184.841,325.178 251.174,325.678 317.5,327C 326.45,327.102 335.117,328.602 343.5,331.5C 340.665,335.257 336.999,336.757 332.5,336C 333.328,336.915 334.328,337.581 335.5,338C 323.609,344.654 311.609,351.988 299.5,360C 288.917,366.595 277.917,373.428 266.5,380.5C 242.023,395.795 217.023,411.295 191.5,427C 200.827,427.5 210.161,427.666 219.5,427.5C 228.167,427.5 236.833,427.5 245.5,427.5C 256.838,427.333 268.172,427.5 279.5,428C 277.942,428.21 276.609,428.71 275.5,429.5C 256.167,429.5 236.833,429.5 217.5,429.5C 197.669,428.55 177.669,427.883 157.5,427.5C 179.213,413.189 202.046,398.856 226,384.5C 228.176,383.484 229.343,381.818 229.5,379.5C 231.199,379.66 232.866,379.494 234.5,379C 260.1,362.821 286.1,346.488 312.5,330C 312.043,329.586 311.709,329.086 311.5,328.5C 301.522,327.501 291.522,327.168 281.5,327.5C 249.506,326.748 217.506,326.414 185.5,326.5C 163.5,326.5 141.5,326.5 119.5,326.5C 118.833,326.5 118.5,326.167 118.5,325.5 Z"/></g>
<g><path style="opacity:1" fill="#a666e2" d="M 343.5,331.5 C 347.172,332.835 350.838,334.168 354.5,335.5C 356.368,336.263 358.035,337.263 359.5,338.5C 358.103,340.379 356.437,342.046 354.5,343.5C 344.582,347.78 335.582,353.447 327.5,360.5C 315.967,366.518 304.8,373.185 294,380.5C 277.869,390.362 261.369,400.529 244.5,411C 245.711,411.893 245.711,412.726 244.5,413.5C 243.549,412.674 242.549,412.508 241.5,413C 233.963,417.596 226.63,422.43 219.5,427.5C 210.161,427.666 200.827,427.5 191.5,427C 217.023,411.295 242.023,395.795 266.5,380.5C 277.917,373.428 288.917,366.595 299.5,360C 311.609,351.988 323.609,344.654 335.5,338C 334.328,337.581 333.328,336.915 332.5,336C 336.999,336.757 340.665,335.257 343.5,331.5 Z"/></g>
<g><path style="opacity:0.027" fill="#faf8fb" d="M 451.5,328.5 C 452.903,331.909 453.57,335.575 453.5,339.5C 453.167,339.5 452.833,339.5 452.5,339.5C 452.058,335.846 451.724,332.179 451.5,328.5 Z"/></g>
<g><path style="opacity:1" fill="#a062e1" d="M 359.5,338.5 C 363.757,339.962 367.757,341.962 371.5,344.5C 372.612,345.265 373.279,346.265 373.5,347.5C 362.157,353.259 351.324,359.926 341,367.5C 340.667,367.167 340.333,366.833 340,366.5C 337.683,368.316 335.516,370.316 333.5,372.5C 324.167,377.833 314.833,383.167 305.5,388.5C 300.549,393.642 294.549,396.642 287.5,397.5C 287.5,401.5 285.5,403.5 281.5,403.5C 281.714,407.257 280.714,407.924 278.5,405.5C 271.668,410.084 264.668,414.417 257.5,418.5C 255.068,421.98 251.735,423.98 247.5,424.5C 246.388,425.265 245.721,426.265 245.5,427.5C 236.833,427.5 228.167,427.5 219.5,427.5C 226.63,422.43 233.963,417.596 241.5,413C 242.549,412.508 243.549,412.674 244.5,413.5C 245.711,412.726 245.711,411.893 244.5,411C 261.369,400.529 277.869,390.362 294,380.5C 304.8,373.185 315.967,366.518 327.5,360.5C 335.582,353.447 344.582,347.78 354.5,343.5C 356.437,342.046 358.103,340.379 359.5,338.5 Z"/></g>
<g><path style="opacity:0.22" fill="#eedff1" d="M 33.5,339.5 C 34.2216,339.918 34.7216,340.584 35,341.5C 35.498,344.482 35.6646,347.482 35.5,350.5C 33.9177,347.124 33.2511,343.458 33.5,339.5 Z"/></g>
<g><path style="opacity:0.51" fill="#cbc0fb" d="M 452.5,339.5 C 452.833,339.5 453.167,339.5 453.5,339.5C 454.719,345.643 454.719,351.643 453.5,357.5C 453.167,357.5 452.833,357.5 452.5,357.5C 452.5,351.5 452.5,345.5 452.5,339.5 Z"/></g>
<g><path style="opacity:1" fill="#6c58cc" d="M 449.5,325.5 C 450.167,326.167 450.833,326.833 451.5,327.5C 451.5,327.833 451.5,328.167 451.5,328.5C 451.724,332.179 452.058,335.846 452.5,339.5C 452.5,345.5 452.5,351.5 452.5,357.5C 451.949,360.807 451.616,364.14 451.5,367.5C 448.856,367.84 446.523,367.173 444.5,365.5C 443.833,366.167 443.167,366.833 442.5,367.5C 440.665,364.599 438.331,363.933 435.5,365.5C 435.666,370.844 435.499,376.177 435,381.5C 434.667,380.833 434.333,380.167 434,379.5C 433.606,381.955 432.44,383.955 430.5,385.5C 429.167,382.833 427.833,382.833 426.5,385.5C 425.167,384.167 423.833,382.833 422.5,381.5C 420.087,385.89 419.087,390.556 419.5,395.5C 416.833,395.5 414.167,395.5 411.5,395.5C 411.5,396.833 411.5,398.167 411.5,399.5C 410.252,395.069 408.252,391.069 405.5,387.5C 404.833,384.833 404.167,382.167 403.5,379.5C 403.5,378.5 403.5,377.5 403.5,376.5C 408.152,376.002 412.819,375.669 417.5,375.5C 416.149,369.431 414.482,363.431 412.5,357.5C 409.714,352.613 407.547,347.613 406,342.5C 408.367,341.953 410.533,340.953 412.5,339.5C 413.833,342.167 415.167,342.167 416.5,339.5C 417.833,347.5 419.167,347.5 420.5,339.5C 423.212,341.26 426.212,341.927 429.5,341.5C 429.968,334.801 428.301,328.801 424.5,323.5C 426.203,321.859 428.37,320.859 431,320.5C 435.851,324.696 441.351,325.696 447.5,323.5C 447.201,325.604 447.534,327.604 448.5,329.5C 449.429,328.311 449.762,326.978 449.5,325.5 Z"/></g>
<g><path style="opacity:0.204" fill="#eaddec" d="M 35.5,351.5 C 37.3079,352.918 37.9746,354.918 37.5,357.5C 36.2616,355.786 35.595,353.786 35.5,351.5 Z"/></g>
<g><path style="opacity:1" fill="#9a5ddf" d="M 373.5,347.5 C 381.5,351.5 387.5,357.5 391.5,365.5C 389.669,367.776 387.336,369.609 384.5,371C 385.711,371.893 385.711,372.726 384.5,373.5C 382.936,372.814 381.269,372.981 379.5,374C 363.138,384.376 346.805,394.71 330.5,405C 331.711,405.893 331.711,406.726 330.5,407.5C 329.808,406.975 329.308,406.308 329,405.5C 327.333,406.833 325.667,408.167 324,409.5C 323.692,408.692 323.192,408.025 322.5,407.5C 322.685,409.486 322.018,411.486 320.5,413.5C 319.833,413.167 319.167,412.833 318.5,412.5C 315.733,414.299 312.899,415.966 310,417.5C 309.228,417.355 308.561,417.022 308,416.5C 307.273,419.955 305.107,421.621 301.5,421.5C 301.762,422.978 301.429,424.311 300.5,425.5C 298.671,424.712 297.004,425.212 295.5,427C 291.5,427.333 287.5,427.667 283.5,428C 292.343,428.17 301.01,428.67 309.5,429.5C 298.167,429.5 286.833,429.5 275.5,429.5C 276.609,428.71 277.942,428.21 279.5,428C 268.172,427.5 256.838,427.333 245.5,427.5C 245.721,426.265 246.388,425.265 247.5,424.5C 251.735,423.98 255.068,421.98 257.5,418.5C 264.668,414.417 271.668,410.084 278.5,405.5C 280.714,407.924 281.714,407.257 281.5,403.5C 285.5,403.5 287.5,401.5 287.5,397.5C 294.549,396.642 300.549,393.642 305.5,388.5C 314.833,383.167 324.167,377.833 333.5,372.5C 335.516,370.316 337.683,368.316 340,366.5C 340.333,366.833 340.667,367.167 341,367.5C 351.324,359.926 362.157,353.259 373.5,347.5 Z"/></g>
<g><path style="opacity:0.065" fill="#f0e1f2" d="M 37.5,357.5 C 39.3079,358.918 39.9746,360.918 39.5,363.5C 38.2616,361.786 37.595,359.786 37.5,357.5 Z"/></g>
<g><path style="opacity:0.353" fill="#eee1ef" d="M 39.5,363.5 C 41.1214,365.23 42.4548,367.23 43.5,369.5C 43.5,370.5 43.5,371.5 43.5,372.5C 41.3754,369.912 40.0421,366.912 39.5,363.5 Z"/></g>
<g><path style="opacity:0.999" fill="#905bdb" d="M 391.5,365.5 C 395.5,370.167 399.5,374.833 403.5,379.5C 404.167,382.167 404.833,384.833 405.5,387.5C 405.631,388.376 405.298,389.043 404.5,389.5C 383.178,402.392 362.845,414.892 343.5,427C 345.437,427.122 346.77,427.955 347.5,429.5C 334.833,429.5 322.167,429.5 309.5,429.5C 301.01,428.67 292.343,428.17 283.5,428C 287.5,427.667 291.5,427.333 295.5,427C 297.004,425.212 298.671,424.712 300.5,425.5C 301.429,424.311 301.762,422.978 301.5,421.5C 305.107,421.621 307.273,419.955 308,416.5C 308.561,417.022 309.228,417.355 310,417.5C 312.899,415.966 315.733,414.299 318.5,412.5C 319.167,412.833 319.833,413.167 320.5,413.5C 322.018,411.486 322.685,409.486 322.5,407.5C 323.192,408.025 323.692,408.692 324,409.5C 325.667,408.167 327.333,406.833 329,405.5C 329.308,406.308 329.808,406.975 330.5,407.5C 331.711,406.726 331.711,405.893 330.5,405C 346.805,394.71 363.138,384.376 379.5,374C 381.269,372.981 382.936,372.814 384.5,373.5C 385.711,372.726 385.711,371.893 384.5,371C 387.336,369.609 389.669,367.776 391.5,365.5 Z"/></g>
<g><path style="opacity:0.212" fill="#e2dfe9" d="M 452.5,357.5 C 452.833,357.5 453.167,357.5 453.5,357.5C 453.658,365.23 452.325,372.564 449.5,379.5C 449.534,375.37 450.201,371.37 451.5,367.5C 451.616,364.14 451.949,360.807 452.5,357.5 Z"/></g>
<g><path style="opacity:0.537" fill="#e8e2ea" d="M 43.5,373.5 C 45.0481,373.821 45.7148,374.821 45.5,376.5C 44.5987,375.71 43.9321,374.71 43.5,373.5 Z"/></g>
<g><path style="opacity:0.051" fill="#f5ebf6" d="M 45.5,376.5 C 48.0797,378.089 49.413,380.422 49.5,383.5C 47.412,381.664 46.0787,379.331 45.5,376.5 Z"/></g>
<g><path style="opacity:0.2" fill="#d3d5e0" d="M 449.5,379.5 C 449.405,381.786 448.738,383.786 447.5,385.5C 447.025,382.918 447.692,380.918 449.5,379.5 Z"/></g>
<g><path style="opacity:0.999" fill="#5c58c4" d="M 451.5,367.5 C 450.201,371.37 449.534,375.37 449.5,379.5C 447.692,380.918 447.025,382.918 447.5,385.5C 445.375,388.088 444.042,391.088 443.5,394.5C 441.604,396.837 440.27,399.504 439.5,402.5C 436.582,404.877 434.582,407.877 433.5,411.5C 430.167,413.5 427.5,416.167 425.5,419.5C 423.833,421.833 421.833,423.833 419.5,425.5C 418.167,426.167 416.833,426.833 415.5,427.5C 415.456,417.955 414.123,408.622 411.5,399.5C 411.5,398.167 411.5,396.833 411.5,395.5C 414.167,395.5 416.833,395.5 419.5,395.5C 419.087,390.556 420.087,385.89 422.5,381.5C 423.833,382.833 425.167,384.167 426.5,385.5C 427.833,382.833 429.167,382.833 430.5,385.5C 432.44,383.955 433.606,381.955 434,379.5C 434.333,380.167 434.667,380.833 435,381.5C 435.499,376.177 435.666,370.844 435.5,365.5C 438.331,363.933 440.665,364.599 442.5,367.5C 443.167,366.833 443.833,366.167 444.5,365.5C 446.523,367.173 448.856,367.84 451.5,367.5 Z"/></g>
<g><path style="opacity:0.498" fill="#e9d8ec" d="M 49.5,383.5 C 50.1667,383.5 50.8333,383.5 51.5,383.5C 52.5025,385.011 53.1692,386.678 53.5,388.5C 51.457,387.421 50.1237,385.754 49.5,383.5 Z"/></g>
<g><path style="opacity:0.997" fill="#855bd6" d="M 405.5,387.5 C 408.252,391.069 410.252,395.069 411.5,399.5C 414.123,408.622 415.456,417.955 415.5,427.5C 393.191,429.49 370.525,430.156 347.5,429.5C 346.77,427.955 345.437,427.122 343.5,427C 362.845,414.892 383.178,402.392 404.5,389.5C 405.298,389.043 405.631,388.376 405.5,387.5 Z"/></g>
<g><path style="opacity:0.02" fill="#fbf6fb" d="M 53.5,388.5 C 54.9063,388.973 55.573,389.973 55.5,391.5C 54.0937,391.027 53.427,390.027 53.5,388.5 Z"/></g>
<g><path style="opacity:0.192" fill="#e6e5ef" d="M 447.5,385.5 C 446.958,388.912 445.625,391.912 443.5,394.5C 444.042,391.088 445.375,388.088 447.5,385.5 Z"/></g>
<g><path style="opacity:0.231" fill="#eee2f1" d="M 57.5,393.5 C 59.5,394.833 61.5,396.167 63.5,397.5C 64.8333,399.5 66.1667,401.5 67.5,403.5C 63.1667,401.167 59.8333,397.833 57.5,393.5 Z"/></g>
<g><path style="opacity:0.027" fill="#e9e8f1" d="M 443.5,394.5 C 443.206,397.754 441.873,400.421 439.5,402.5C 440.27,399.504 441.604,396.837 443.5,394.5 Z"/></g>
<g><path style="opacity:0.922" fill="#dabae7" d="M 67.5,403.5 C 71.9975,404.66 75.3309,407.326 77.5,411.5C 73.4281,409.792 70.0948,407.126 67.5,403.5 Z"/></g>
<g><path style="opacity:0.051" fill="#eaeaf1" d="M 439.5,402.5 C 438.277,406.049 436.277,409.049 433.5,411.5C 434.582,407.877 436.582,404.877 439.5,402.5 Z"/></g>
<g><path style="opacity:0.518" fill="#ead8f1" d="M 77.5,411.5 C 78.8333,411.833 80.1667,412.167 81.5,412.5C 82.5511,413.222 83.2178,414.222 83.5,415.5C 81.1475,414.66 79.1475,413.326 77.5,411.5 Z"/></g>
<g><path style="opacity:0.863" fill="#d7c1de" d="M 83.5,415.5 C 85.4832,415.157 86.8166,415.824 87.5,417.5C 85.847,417.34 84.5137,416.674 83.5,415.5 Z"/></g>
<g><path style="opacity:0.6" fill="#aaa9cc" d="M 433.5,411.5 C 432.243,414.427 430.243,416.761 427.5,418.5C 426.833,418.833 426.167,419.167 425.5,419.5C 427.5,416.167 430.167,413.5 433.5,411.5 Z"/></g>
<g><path style="opacity:0.939" fill="#cda3e1" d="M 87.5,417.5 C 90.9322,417.757 94.2655,418.424 97.5,419.5C 97.5,420.167 97.5,420.833 97.5,421.5C 96.8333,421.5 96.1667,421.5 95.5,421.5C 92.5152,420.674 89.8485,419.341 87.5,417.5 Z"/></g>
<g><path style="opacity:0.008" fill="#f4f5fc" d="M 427.5,418.5 C 425.833,422.167 423.167,424.833 419.5,426.5C 419.5,426.167 419.5,425.833 419.5,425.5C 421.833,423.833 423.833,421.833 425.5,419.5C 426.167,419.167 426.833,418.833 427.5,418.5 Z"/></g>
<g><path style="opacity:0.624" fill="#e4d2ea" d="M 95.5,421.5 C 96.1667,421.5 96.8333,421.5 97.5,421.5C 101.11,422.311 104.444,423.644 107.5,425.5C 103.085,425.139 99.0845,423.806 95.5,421.5 Z"/></g>
<g><path style="opacity:0.941" fill="#cdafda" d="M 107.5,425.5 C 110.698,424.964 113.365,425.631 115.5,427.5C 112.505,427.706 109.838,427.04 107.5,425.5 Z"/></g>
<g><path style="opacity:0.522" fill="#e5dae9" d="M 115.5,427.5 C 119.489,427.116 123.155,427.783 126.5,429.5C 122.613,429.354 118.946,428.687 115.5,427.5 Z"/></g>
<g><path style="opacity:0.482" fill="#c1c0dc" d="M 419.5,425.5 C 419.5,425.833 419.5,426.167 419.5,426.5C 418.71,427.794 417.71,428.961 416.5,430C 323.999,430.832 231.666,430.666 139.5,429.5C 165.5,429.5 191.5,429.5 217.5,429.5C 236.833,429.5 256.167,429.5 275.5,429.5C 286.833,429.5 298.167,429.5 309.5,429.5C 322.167,429.5 334.833,429.5 347.5,429.5C 370.525,430.156 393.191,429.49 415.5,427.5C 416.833,426.833 418.167,426.167 419.5,425.5 Z"/></g>
</svg>
